<svg width="391" height="352" viewBox="0 0 391 352" fill="none" xmlns="http://www.w3.org/2000/svg">
<path fill-rule="evenodd" clip-rule="evenodd" d="M134.847 119.071L115.772 124.061L115.398 124.117L115.023 124.137L114.643 124.121L114.264 124.066L113.885 123.972L113.513 123.838L35.7048 91.3317L35.3485 91.1605L35.0154 90.9576L34.7089 90.7253L34.429 90.4669L34.1792 90.1841L33.9577 89.8805L33.77 89.5577L33.6123 89.2194L33.4864 88.8671L33.3942 88.5043L33.3376 88.1331L33.3161 87.7559L33.3338 87.3759L33.3888 86.9958L33.4826 86.6181L33.6157 86.2449L66.122 8.43904L66.294 8.08103L66.4957 7.74878L66.7298 7.44257L66.9885 7.16413L67.2701 6.91316L67.5752 6.69308L67.8957 6.50278L68.2339 6.34453L68.5885 6.21947L87.6634 1.22974L87.3109 1.35508L86.9723 1.51391L86.6481 1.70393L86.3453 1.92457L86.0617 2.1744L85.803 2.45342L85.5727 2.75962L85.3689 3.09216L85.1969 3.44959L52.6924 81.2552L52.5579 81.6292L52.462 82.0067L52.4091 82.3867L52.393 82.767L52.4108 83.1437L52.4692 83.5148L52.5613 83.8777L52.6869 84.23L52.8429 84.5685L53.0344 84.8907L53.2559 85.1947L53.5057 85.4777L53.7838 85.7361L54.0906 85.9685L54.4217 86.1714L54.7817 86.3425L132.586 118.849L132.958 118.983L133.339 119.077L133.718 119.131L134.099 119.148L134.475 119.128L134.847 119.071Z" fill="#F6908F"/>
<path d="M135.113 120.097L115.93 125.112L115.559 125.167L115.081 125.197H114.977L114.494 125.171L114.113 125.117L114.011 125.097L113.632 125.003C113.454 124.946 113.279 124.879 113.104 124.819L35.2991 92.3129C35.1325 92.2296 34.9625 92.1535 34.796 92.0662L34.4629 91.8633L34.3759 91.8052L34.0711 91.5731L33.9878 91.5027L33.7062 91.2431C33.5734 91.1032 33.4438 90.9552 33.3199 90.8073L33.1001 90.5034L32.854 90.0936L32.8096 90.0071L32.6113 89.5719L32.4857 89.2202L32.4574 89.1246L32.3652 88.7617L32.342 88.6616L32.2874 88.2907L32.2573 87.813V87.71L32.2839 87.2264L32.3389 86.8458L32.3584 86.7422L32.4525 86.3644C32.5092 86.1864 32.5781 86.0136 32.6368 85.8373L65.143 8.03113C65.2246 7.86372 65.3007 7.69402 65.3874 7.52832L65.5932 7.19608L65.6499 7.10822L65.8819 6.80259L65.9529 6.71931L66.2116 6.44058C66.3515 6.30722 66.4986 6.17758 66.6492 6.0531L66.9522 5.83246L67.3615 5.58835L67.4482 5.54256L67.884 5.34281L68.2349 5.21775L87.3985 0.203125L88.0152 2.23124L87.6944 2.34543L87.4641 2.45217L87.2531 2.57666L86.991 2.76582L86.8156 2.92235L86.6244 3.13097L86.4438 3.36621L86.2947 3.61146L86.178 3.85557L53.6723 81.662L53.5785 81.9182L53.5075 82.2046L53.4651 82.4997L53.4545 82.7569L53.4686 83.0116L53.5146 83.3121L53.5767 83.5582L53.6849 83.861L53.7825 84.0753L53.9081 84.2865L54.0993 84.5475L54.2518 84.7238L54.4607 84.9173L54.6982 85.0958L54.9443 85.2455L55.1853 85.362L132.993 117.868L133.25 117.961L133.536 118.032L133.831 118.074L134.087 118.086L134.345 118.071L134.689 118.019L135.113 120.097ZM115.584 123.013L130.477 119.118L54.3723 87.3231C54.2057 87.2398 54.0355 87.1637 53.8689 87.0767L53.5378 86.8738L53.4508 86.8155L53.1426 86.5842L53.0593 86.5133L52.7829 86.2551C52.6498 86.1146 52.5205 85.9661 52.3966 85.8184L52.1751 85.5142L51.9307 85.1047L51.8863 85.0174L51.6863 84.5867L51.5606 84.2353L51.4382 83.772L51.4187 83.6724L51.36 83.3018L51.3334 82.821V82.7203L51.3566 82.2372L51.4132 81.8572L51.4327 81.7536L51.5249 81.3759C51.5832 81.1973 51.6491 81.0247 51.7109 80.8481L84.1304 3.24945L68.9182 7.2287L68.6169 7.33602L68.39 7.44276L68.1793 7.56667L67.9169 7.75583L67.7418 7.9118L67.5486 8.12128L67.3697 8.35651L67.2175 8.60205L67.1042 8.84616L34.5957 86.6512L34.5038 86.9079L34.4311 87.1932L34.3902 87.4891L34.3796 87.7438L34.3919 88.0025L34.4397 88.3016L34.5052 88.5634L34.6008 88.8367L34.709 89.0642L34.8346 89.2754L35.0206 89.5361L35.1783 89.7124L35.3892 89.9073L35.6213 90.085L35.8677 90.2352L36.1121 90.3523L113.916 122.858L114.175 122.951L114.459 123.022L114.754 123.064L115.01 123.075L115.268 123.061L115.584 123.013Z" fill="black"/>
<path fill-rule="evenodd" clip-rule="evenodd" d="M90.2864 1.36064L168.089 33.8666C170.065 34.6913 171.006 36.9802 170.18 38.9545L137.675 116.759C136.85 118.734 134.56 119.673 132.585 118.849L54.7822 86.3429C52.8065 85.5182 51.8655 83.2288 52.6929 81.2547L85.1974 3.44942C86.0233 1.47625 88.3107 0.535886 90.2864 1.36064Z" fill="#F36766"/>
<path d="M90.6894 0.379774L168.497 32.8854C169.754 33.4106 170.68 34.4027 171.166 35.576C171.648 36.7496 171.685 38.1061 171.16 39.361L138.654 117.167C138.13 118.425 137.136 119.352 135.964 119.834C134.855 120.289 133.585 120.347 132.392 119.913H132.378L54.3716 87.3232C53.1153 86.7978 52.1867 85.8068 51.7065 84.6329C51.2211 83.4593 51.1856 82.102 51.7102 80.8474L84.2164 3.04177C84.741 1.78489 85.7332 0.855966 86.9045 0.374049C88.0137 -0.0798233 89.2826 -0.138488 90.4768 0.296497H90.4928L90.6894 0.379774ZM167.684 34.8469L89.8761 2.34092C89.1566 2.04101 88.3823 2.06133 87.7109 2.33549C87.0481 2.60821 86.4846 3.13191 86.1836 3.83905L53.6716 81.6621C53.3723 82.3813 53.39 83.1568 53.6662 83.8264C53.9406 84.4967 54.4706 85.0633 55.1846 85.3623L132.993 117.868C133.712 118.168 134.486 118.148 135.158 117.873C135.82 117.6 136.384 117.078 136.685 116.371L169.197 38.5465C169.498 37.8277 169.478 37.0518 169.204 36.3822C168.928 35.7126 168.4 35.1454 167.684 34.8469Z" fill="black"/>
<path fill-rule="evenodd" clip-rule="evenodd" d="M52.6875 84.23L33.5842 89.1467L33.6126 89.2194L33.7702 89.558L33.958 89.8808L34.1792 90.1844L34.429 90.4672L34.7092 90.7258L35.0157 90.9582L35.3488 91.1611L35.7051 91.3325L113.513 123.839C114.487 124.19 115.129 124.228 116.133 123.966L116.171 123.956L134.847 119.071C134.085 119.225 133.304 119.15 132.584 118.85L121.71 114.305L54.7814 86.3434C54.6572 86.2924 54.537 86.2352 54.4217 86.1722C54.3084 86.1093 54.1965 86.042 54.0903 85.9693C53.9839 85.8964 53.8814 85.8194 53.7838 85.7367C53.6862 85.6548 53.5941 85.5684 53.5057 85.4786C53.4189 85.3881 53.3357 85.2943 53.2575 85.197C53.176 85.0991 53.1033 84.9975 53.0361 84.8933C52.9654 84.7883 52.9033 84.6801 52.8429 84.5691C52.7888 84.4589 52.7356 84.3465 52.6875 84.23Z" fill="#B14C4B"/>
<path d="M52.1433 85.4629L35.2762 89.8041L35.4127 89.9312L35.5935 90.0668L35.8682 90.2348L36.1126 90.3519L113.917 122.858C114.284 122.987 114.581 123.058 114.863 123.073C115.157 123.087 115.469 123.043 115.863 122.94C120.615 121.55 125.665 120.377 130.477 119.118L54.3723 87.323L54.1419 87.2171L53.9167 87.1021L53.7021 86.9799L53.4914 86.8451C53.371 86.7624 53.2416 86.6625 53.1017 86.5466C52.9652 86.4324 52.8464 86.3214 52.7454 86.2166L52.5823 86.0426L52.4263 85.8566L52.2829 85.6689C52.2474 85.6243 52.2031 85.559 52.1464 85.4697L52.1433 85.4629ZM33.3233 88.1194L53.316 82.9731L53.6669 83.8308L53.7218 83.9527C53.8655 84.2366 53.9716 84.3931 54.172 84.6375L54.2658 84.7368C54.3368 84.8121 54.4058 84.8756 54.4644 84.926C54.5228 84.9729 54.5972 85.0287 54.6894 85.0914L54.9286 85.2405L55.0542 85.3052C80.8981 96.3804 107.038 107.024 132.993 117.868C133.257 117.98 133.532 118.047 133.803 118.075C134.081 118.101 134.361 118.087 134.64 118.032L135.114 120.097C132.426 120.799 117.87 124.991 116.399 124.991C115.791 125.15 115.283 125.218 114.76 125.192C114.241 125.166 113.739 125.047 113.155 124.836L113.103 124.819L35.2991 92.3119C33.2898 91.3143 32.9229 90.4457 32.1964 88.409L33.3233 88.1194Z" fill="black"/>
<path fill-rule="evenodd" clip-rule="evenodd" d="M101.974 76.1451L95.3632 68.5761L103.583 45.4435L117.86 42.888L127.198 53.9641L122.24 67.911L112.372 69.341L108.672 68.0255L111.651 59.6429L115.331 60.951L117.178 55.7552L114.358 52.4522L110.127 53.2881L101.974 76.1451ZM123.266 30.7545L132.783 41.9207L132.779 41.9238L143.284 54.2519L132.446 84.7426L116.518 87.6759L116.52 87.6811L100.594 90.6144L79.5876 65.9636L90.4302 35.4615L122.281 29.5955L123.266 30.7545ZM128.773 45.3285L120.243 35.3212L94.3851 40.084L85.5749 64.8747L102.63 84.8886L115.56 82.5071L115.567 82.5111L128.488 80.1318L137.3 55.33L128.782 45.3325L128.773 45.3285Z" fill="white"/>
<path fill-rule="evenodd" clip-rule="evenodd" d="M69.7555 273.229L47.941 264.85C46.1584 264.002 45.3379 262.474 45.611 260.52L61.6381 177.733C62.1839 175.53 63.9453 174.336 66.1937 174.654L148.982 190.678L149.367 190.774L171.183 199.154L170.797 199.058L88.0099 183.034C85.7615 182.717 83.9981 183.908 83.4541 186.112L67.4269 268.899C67.1702 270.716 67.8398 272.115 69.4098 273.065L69.7555 273.229Z" fill="#6289CD"/>
<path d="M69.3767 274.219C62.0833 271.407 54.7776 268.628 47.4844 265.809C46.3821 265.286 45.5691 264.536 45.0694 263.603C44.5677 262.669 44.3906 261.58 44.5609 260.374L60.6075 177.479C60.9443 176.112 61.6758 175.047 62.6826 174.367C63.6873 173.687 64.947 173.406 66.3396 173.603L149.619 189.743L149.745 189.785L171.56 198.165L170.929 200.184L170.576 200.098L87.8301 184.08C86.9885 183.968 86.253 184.124 85.6881 184.507C85.1192 184.89 84.6993 185.515 84.4919 186.335L68.4753 269.079C68.3831 269.763 68.4558 270.356 68.6933 270.853C68.9237 271.341 69.3312 271.767 69.9104 272.126L70.2118 272.269L69.3767 274.219ZM48.3899 263.89L66.444 270.824C66.2952 270.184 66.272 269.494 66.3768 268.753C70.4433 242.829 76.6078 211.49 82.4217 185.859C82.7602 184.491 83.492 183.427 84.4985 182.748C85.5015 182.067 86.763 181.786 88.1558 181.982L159.446 195.78L149.068 191.793L148.761 191.718L66.0153 175.7C65.172 175.589 64.4382 175.745 63.8713 176.128C63.3044 176.51 62.8826 177.136 62.6751 177.956L46.6585 260.701C46.5609 261.434 46.6585 262.074 46.9367 262.597C47.222 263.127 47.7128 263.566 48.3899 263.89Z" fill="black"/>
<path fill-rule="evenodd" clip-rule="evenodd" d="M88.0094 183.034L170.796 199.058C172.894 199.465 174.282 201.516 173.874 203.615L157.85 286.401C157.445 288.502 155.393 289.887 153.291 289.48L70.5078 273.457C68.4062 273.049 67.0225 270.999 67.4263 268.898L83.4535 186.112C83.8593 184.013 85.9094 182.627 88.0094 183.034Z" fill="#F7F3E9"/>
<path d="M88.2098 181.99L170.997 198.016C172.336 198.275 173.446 199.057 174.158 200.107C174.867 201.158 175.177 202.478 174.918 203.815L158.895 286.601C158.634 287.941 157.853 289.052 156.802 289.762C155.751 290.471 154.431 290.782 153.095 290.524L70.3076 274.498C68.9663 274.24 67.8553 273.457 67.1465 272.406C66.4554 271.387 66.1454 270.112 66.3635 268.816C66.3635 256.169 79.219 202.405 82.4102 185.913C82.6706 184.572 83.4521 183.461 84.503 182.751C85.5521 182.042 86.8739 181.732 88.2098 181.99ZM170.595 200.1L87.8111 184.076C87.0491 183.929 86.2927 184.107 85.6917 184.514C85.091 184.92 84.6429 185.552 84.4958 186.311L68.4721 269.099C68.3215 269.861 68.5021 270.616 68.9079 271.218C69.3117 271.814 69.9356 272.26 70.6905 272.409L153.494 288.438C154.256 288.586 155.012 288.407 155.613 288.001C156.214 287.594 156.662 286.961 156.809 286.202L172.833 203.416C172.98 202.653 172.803 201.897 172.397 201.296C171.989 200.695 171.357 200.248 170.595 200.1Z" fill="black"/>
<path fill-rule="evenodd" clip-rule="evenodd" d="M86.1031 183.144L63.0023 175.46L62.9828 175.477C62.2085 176.179 61.8897 176.719 61.6381 177.733L45.6109 260.52C45.3379 262.474 46.1587 264.002 47.941 264.851L69.7466 273.226C69.6313 273.177 69.5162 273.124 69.4097 273.065C69.2947 273.003 69.1883 272.938 69.0818 272.868C68.9791 272.798 68.8763 272.722 68.7804 272.642C68.6849 272.562 68.591 272.478 68.504 272.389C68.4139 272.301 68.332 272.208 68.2525 272.112C68.1726 272.015 68.0982 271.917 68.0255 271.813C67.9583 271.71 67.8927 271.603 67.8341 271.496C67.774 271.386 67.7207 271.274 67.6712 271.16C67.6712 271.157 67.6695 271.155 67.6695 271.154C67.6197 271.04 67.5774 270.923 67.5402 270.805C67.501 270.686 67.4675 270.565 67.4426 270.442C67.4426 270.44 67.4426 270.439 67.4426 270.437C67.416 270.315 67.3965 270.191 67.3805 270.066C67.3682 269.94 67.3593 269.812 67.3576 269.683C67.3576 269.683 67.3576 269.68 67.3576 269.678C67.3559 269.55 67.361 269.421 67.3736 269.291C67.3825 269.161 67.4037 269.03 67.4268 268.899L67.4658 268.71L83.454 186.112C83.4789 185.981 83.509 185.854 83.5462 185.727C83.5851 185.602 83.6294 185.48 83.6772 185.361C83.7287 185.242 83.7837 185.127 83.8421 185.015C83.9042 184.903 85.414 183.439 86.1031 183.144Z" fill="#6289CD"/>
<path d="M83.864 183.514L63.2867 176.67C63.1822 176.79 63.0969 176.907 63.028 177.028C62.8774 177.276 62.7727 177.567 62.6754 177.954L46.6588 260.7C46.5612 261.434 46.6588 262.074 46.937 262.596C47.2223 263.127 47.7131 263.565 48.3902 263.89L66.4409 270.823C66.4071 270.685 66.3859 270.561 66.3593 270.423L66.3238 270.182L66.3061 269.94C66.2955 269.684 66.2989 269.457 66.313 269.2L66.3167 269.196L66.3433 268.949C70.8671 241.553 77.1097 213.292 82.4097 185.913L82.4646 185.666L82.5284 185.425C82.5851 185.256 82.6329 185.12 82.6967 184.953L82.7994 184.734C82.8329 184.656 82.8701 184.581 82.9073 184.512C82.9674 184.415 83.3749 183.971 83.864 183.514ZM63.3359 174.455L89.093 183.023L86.5183 184.12C86.3732 184.184 86.0879 184.399 85.7848 184.65C85.2497 185.091 84.7835 185.498 84.7766 185.513C84.7766 185.533 84.5835 185.98 84.564 186.033C84.5357 186.133 84.5179 186.21 84.4947 186.312C79.4483 212.383 71.6959 243.684 68.4286 269.383H68.4321L68.4198 269.527C68.4129 269.722 68.4269 269.888 68.4515 270.082L68.4799 270.221C68.5136 270.362 68.5491 270.475 68.5915 270.611H68.5969C68.6501 270.746 68.6962 270.853 68.7617 270.985L68.8307 271.103L68.983 271.329L69.0645 271.435C69.1956 271.58 69.3126 271.697 69.458 271.827C69.6566 271.98 69.8037 272.073 70.0286 272.193L70.0324 272.189L70.1546 272.249L69.3679 274.214C62.0641 271.459 54.767 268.624 47.4844 265.808C46.3821 265.284 45.5691 264.536 45.0694 263.603C44.5677 262.669 44.3906 261.579 44.5609 260.373L60.6075 177.479C60.7566 176.87 60.9354 176.391 61.1993 175.947C61.4632 175.504 61.8 175.118 62.2713 174.691C62.4359 174.541 62.6256 174.412 62.8045 174.277L63.3359 174.455Z" fill="black"/>
<path d="M121.527 217.116L119.76 226.173C119.409 227.975 118.355 229.562 116.833 230.586C115.309 231.612 113.441 231.99 111.641 231.638L102.585 229.87C100.783 229.518 99.1933 228.465 98.169 226.943C97.1448 225.419 96.7656 223.553 97.1165 221.751L98.8868 212.694C99.2376 210.893 100.292 209.305 101.814 208.279C103.338 207.254 105.204 206.876 107.006 207.228L116.062 208.997C117.862 209.348 119.452 210.401 120.478 211.924C121.502 213.446 121.881 215.314 121.527 217.116ZM144.215 214.494L135.158 212.725C133.356 212.373 131.489 212.752 129.967 213.777C128.443 214.802 127.389 216.39 127.038 218.191L125.267 227.248C124.918 229.05 125.296 230.917 126.322 232.44C127.344 233.962 128.936 235.016 130.736 235.367L139.794 237.136C141.593 237.488 143.46 237.109 144.984 236.084C146.508 235.059 147.56 233.471 147.911 231.669L149.678 222.613C150.032 220.811 149.655 218.943 148.629 217.421C147.604 215.899 146.013 214.846 144.215 214.494ZM110.567 237.146L101.509 235.378C99.7069 235.027 97.8394 235.404 96.3172 236.43C94.795 237.455 93.7425 239.044 93.3899 240.844L91.6197 249.901C91.2705 251.703 91.648 253.57 92.6739 255.092C93.6981 256.616 95.2858 257.669 97.0879 258.021L106.144 259.788C107.946 260.141 109.814 259.763 111.336 258.737C112.858 257.713 113.911 256.124 114.263 254.323L116.032 245.266C116.383 243.465 116.005 241.598 114.979 240.075C113.954 238.551 112.368 237.499 110.567 237.146ZM138.716 242.645L129.66 240.876C127.858 240.524 125.99 240.903 124.468 241.927C122.946 242.953 121.893 244.541 121.541 246.343L119.773 255.399C119.42 257.201 119.799 259.068 120.823 260.591C121.849 262.113 123.435 263.166 125.239 263.518L134.295 265.287C136.097 265.639 137.965 265.26 139.487 264.236C141.009 263.21 142.06 261.622 142.414 259.82L144.183 250.764C144.534 248.963 144.156 247.094 143.13 245.572C142.104 244.05 140.518 242.996 138.716 242.645Z" fill="#6289CD"/>
<path fill-rule="evenodd" clip-rule="evenodd" d="M266.598 15.0641L242.388 23.0351L242.76 22.9187L243.148 22.8385L326.5 10.0818L326.897 10.042H327.287L327.668 10.0809L328.038 10.1567L328.402 10.2683L328.749 10.4123L329.079 10.5889L329.389 10.7955L329.681 11.031L329.945 11.2928L330.19 11.5805L330.404 11.8915L330.585 12.2246L330.739 12.5781L330.854 12.9495L330.936 13.3376L343.692 96.6904L343.729 97.085V97.4745L343.692 97.8562L343.617 98.2294L343.506 98.59L343.36 98.9368L343.185 99.2668L342.978 99.5779L342.74 99.8686L342.48 100.136L342.191 100.377L341.883 100.591L341.549 100.775L341.197 100.927L340.825 101.043L365.031 93.0714L365.405 92.9547L365.756 92.8038L366.089 92.6193L366.401 92.4055L366.686 92.1645L366.949 91.8969L367.186 91.6068L367.393 91.2954L367.569 90.9652L367.712 90.6183L367.826 90.258L367.9 89.8854L367.939 89.5034V89.1139L367.9 88.7196L355.142 5.36618L355.063 4.97784L354.945 4.6061L354.795 4.25297L354.609 3.91986L354.396 3.60879L354.155 3.32118L353.888 3.0599L353.597 2.82438L353.287 2.61748L352.955 2.44062L352.608 2.29668L352.25 2.18507L351.876 2.10923L351.495 2.07117L351.105 2.07031L350.71 2.11066L267.358 14.8674L266.967 14.9476L266.598 15.0641Z" fill="#F7F3E9"/>
<path fill-rule="evenodd" clip-rule="evenodd" d="M365.033 93.0718L340.826 101.044L340.438 101.123L257.084 113.88L256.69 113.92L256.3 113.919L255.918 113.881L255.546 113.805L255.182 113.695L254.839 113.55L254.506 113.373L254.196 113.166L253.905 112.931L253.639 112.669L253.396 112.382L253.182 112.07L252.999 111.738L252.847 111.385L252.732 111.013L252.652 110.625L239.894 27.2718L239.855 26.8774V26.4874L239.894 26.1056L239.97 25.7325L240.08 25.3719L240.226 25.0259L240.401 24.6959L240.608 24.384L240.844 24.0932L241.105 23.8262L241.393 23.5844L241.704 23.3704L242.037 23.1875L242.389 23.0355L266.599 15.0645L266.243 15.2156L265.913 15.3996L265.6 15.6133L265.313 15.8546L265.05 16.1219L264.817 16.4126L264.609 16.7243L264.434 17.0545L264.287 17.4005L264.179 17.7614L264.102 18.134L264.063 18.5163V18.9058L264.102 19.3001L276.861 102.653L276.94 103.042L277.057 103.414L277.208 103.766L277.39 104.099L277.603 104.41L277.846 104.698L278.111 104.96L278.402 105.195L278.716 105.402L279.045 105.578L279.393 105.723L279.754 105.833L280.126 105.909L280.509 105.949H280.898L281.29 105.908L364.644 93.1519L365.033 93.0718Z" fill="#F7BE9A"/>
<path d="M365.364 94.0815L341.156 102.053L340.594 102.174L257.241 114.931L256.792 114.975L256.689 114.98L256.299 114.978L256.195 114.974L255.812 114.936L255.709 114.919L255.231 114.818L254.775 114.674L254.43 114.529C254.258 114.444 254.088 114.352 253.921 114.258L253.608 114.051L253.528 113.993L253.239 113.758L253.161 113.687L252.892 113.425L252.584 113.062L252.524 112.979L252.251 112.581L252.022 112.157L251.868 111.803L251.831 111.699L251.717 111.327C251.673 111.146 251.641 110.963 251.599 110.782L238.842 27.4289L238.798 26.9799L238.795 26.8763V26.4865L238.798 26.383L238.837 26.0006L238.853 25.8927L238.93 25.5201L238.956 25.4208L239.1 24.9641L239.242 24.6178C239.328 24.4464 239.422 24.2753 239.516 24.1087L239.724 23.7974L240.022 23.4239L240.085 23.3492L240.347 23.0819L240.422 23.011L240.713 22.7694C240.867 22.6552 241.028 22.5431 241.191 22.4395L241.526 22.2555L241.62 22.2097L242.058 22.0248L266.266 14.0537L267.012 16.0395L266.714 16.1671L266.457 16.3093L266.257 16.4481L266.027 16.6407L265.841 16.8313L265.68 17.0316L265.509 17.2863L265.403 17.4858L265.284 17.7705L265.205 18.0287L265.152 18.2897L265.123 18.5793V18.8411L265.153 19.1416L277.911 102.494L277.964 102.757L278.055 103.049L278.161 103.294L278.313 103.574L278.443 103.763L278.609 103.96L278.823 104.17L279.024 104.331L279.279 104.501L279.479 104.608L279.771 104.732L280.009 104.803L280.28 104.859L280.57 104.888L280.833 104.889L281.132 104.858L364.485 92.1006L364.819 92.0327L365.364 94.0815ZM340.527 100.023L352.464 96.0913L281.45 106.96L280.998 107.003L280.897 107.008L280.507 107.008L280.401 107.003L280.018 106.965L279.912 106.948L279.54 106.872L279.444 106.847L278.984 106.703L278.638 106.559C278.466 106.473 278.296 106.382 278.13 106.287L277.818 106.08L277.444 105.782L277.369 105.716L277.101 105.454L276.791 105.091L276.731 105.009L276.458 104.61L276.274 104.277L276.228 104.182L276.077 103.829L276.04 103.728L275.925 103.357C275.881 103.176 275.847 102.993 275.804 102.811L263.048 19.4581L263.004 19.0094L263.002 18.9055V18.5157L263.004 18.4124L263.045 18.0307L263.063 17.9222L263.136 17.549L263.162 17.4497L263.21 17.2992L242.746 24.038L242.505 24.1393L242.249 24.2824L242.046 24.4207L241.819 24.6133L241.631 24.8038L241.47 25.0033L241.3 25.2586L241.191 25.4577L241.075 25.7428L240.995 26.0006L240.94 26.2619L240.914 26.5518V26.8145L240.942 27.1144L253.7 110.467L253.755 110.73L253.842 111.007L253.957 111.281L254.106 111.546L254.235 111.734L254.401 111.932L254.611 112.138L254.82 112.307L255.069 112.473L255.268 112.58L255.555 112.699L255.819 112.78L256.063 112.83L256.363 112.86L256.623 112.86L256.923 112.83L340.275 100.072L340.527 100.023Z" fill="black"/>
<path fill-rule="evenodd" clip-rule="evenodd" d="M267.358 14.8675L350.71 2.1104C352.822 1.78702 354.818 3.25252 355.142 5.36706L367.9 88.7184C368.222 90.8327 366.759 92.8276 364.641 93.1515L281.289 105.908C279.175 106.232 277.181 104.766 276.859 102.652L264.101 19.3006C263.777 17.1855 265.244 15.1911 267.358 14.8675Z" fill="#F39C64"/>
<path d="M267.201 13.8164L350.642 1.04702C351.953 0.871025 353.225 1.23418 354.224 1.9685C355.247 2.72028 355.988 3.86069 356.195 5.20828L368.95 88.5616C369.155 89.9052 368.794 91.2125 368.042 92.2347C367.289 93.258 366.15 93.9969 364.801 94.2027L281.451 106.96C280.104 107.166 278.798 106.802 277.776 106.051C276.752 105.299 276.014 104.158 275.805 102.811L263.049 19.4583C262.843 18.1147 263.208 16.8075 263.96 15.7847C264.709 14.7611 265.852 14.023 267.201 13.8164ZM350.785 3.17473L267.515 15.9189C266.747 16.036 266.101 16.4572 265.672 17.0396C265.243 17.6239 265.036 18.372 265.154 19.1427L277.91 102.495C278.026 103.261 278.447 103.911 279.032 104.34C279.615 104.768 280.361 104.976 281.132 104.858L364.484 92.1013C365.253 91.984 365.902 91.5625 366.33 90.9795C366.759 90.3957 366.967 89.6477 366.85 88.8773L354.09 5.51134C353.967 4.75126 353.547 4.10623 352.97 3.68097C352.387 3.25257 351.637 3.04481 350.866 3.16271L350.785 3.17473Z" fill="black"/>
<path fill-rule="evenodd" clip-rule="evenodd" d="M311.269 88.146C311.572 88.2098 311.449 88.0874 311.4 87.7176C311.375 87.5196 311.338 87.313 311.309 87.1121C310.448 80.9399 309.442 74.3519 308.682 68.2835C308.621 67.7887 308.425 67.0982 308.522 66.6312C309.321 66.4211 319.944 65.0223 321.723 64.7748C322.791 64.6257 325.301 64.407 326.179 64.1031C329.491 61.7862 333.694 58.3024 337.139 55.8069C337.834 55.3055 338.351 54.8663 338.955 54.4238C339.244 54.2129 340.715 53.2024 340.74 52.9429L338.048 33.5763L337.607 30.4207C336.313 30.0238 325.729 25.5975 324.323 25.0383L311.85 19.9722C311.391 19.7853 311.297 19.8154 310.907 20.131C307.308 23.04 303.215 26.1298 299.537 28.989L291.014 35.6345C290.541 35.9997 288.416 37.5087 288.262 37.9185L288.611 40.4474L292.788 70.4928L294.319 81.528L311.269 88.146ZM305.536 44.7397L307.322 57.904L324.789 55.477L322.907 41.8422L314.736 38.53C314.266 38.3326 314.024 38.1042 313.537 38.4985C311.978 39.7689 306.745 43.6477 305.536 44.7397ZM343.41 72.0711L341.424 57.8121L326.733 68.9137L327.755 76.4263L329.052 85.7725L343.74 74.6586L343.41 72.0711Z" fill="white"/>
<path d="M278.312 105.838L254.104 113.809L253.438 111.79L277.648 103.819L278.312 105.838Z" fill="black"/>
<path fill-rule="evenodd" clip-rule="evenodd" d="M277.742 106.026L257.214 112.786L340.276 100.071L340.527 100.023L343.261 99.1216L352.465 96.0913L343.729 97.4283L281.451 106.96C281.298 106.983 281.151 106.999 280.999 107.008C280.8 107.02 280.6 107.019 280.402 107.008C280.272 106.999 280.145 106.986 280.019 106.968C279.984 106.963 279.948 106.958 279.913 106.952C279.787 106.932 279.663 106.905 279.54 106.876C279.351 106.829 279.163 106.772 278.984 106.704C278.865 106.66 278.75 106.612 278.637 106.56C278.463 106.479 278.293 106.387 278.128 106.287C278.02 106.222 277.919 106.153 277.818 106.081C277.802 106.071 277.79 106.061 277.776 106.051C277.763 106.042 277.754 106.034 277.742 106.026Z" fill="#B17149"/>
<path d="M354.444 163.229L334.304 164.988C334.441 165.143 334.573 165.345 334.689 165.516L334.88 165.855C344.335 185.674 358.626 224.165 365.618 245.46L365.648 245.564L365.731 245.944L365.747 246.048L365.79 246.429C365.797 246.625 365.8 246.819 365.8 247.013L365.77 247.39C365.74 247.581 365.705 247.772 365.666 247.963L365.565 248.324L365.396 248.767L365.187 249.192L365.138 249.281L364.886 249.68L364.657 249.978C364.524 250.124 364.39 250.27 364.253 250.407L363.887 250.724L363.577 250.948L363.148 251.196L363.052 251.246C340.531 261.276 313.799 270.279 290.461 279.287L306.864 277.854L307.156 277.822L307.443 277.759L307.765 277.652L386.353 247.32L386.651 247.187L386.851 247.072L387.138 246.868L387.333 246.697L387.489 246.528L387.691 246.266L387.817 246.067L387.937 245.825L388.033 245.575L388.118 245.275L388.157 245.061L388.185 244.722L388.182 244.506L388.148 244.208L388.083 243.921L387.978 243.599L357.646 165.013L357.529 164.747L357.375 164.483L357.194 164.227L357.024 164.033L356.851 163.871L356.629 163.701L356.356 163.531L356.149 163.427L355.901 163.331L355.601 163.247L355.389 163.208L355.049 163.18L354.831 163.184L354.444 163.229ZM330.493 165.321L329.94 165.368L329.729 163.253L330.11 163.209L330.278 163.204L354.264 161.11L354.614 161.07C354.81 161.062 355.006 161.059 355.199 161.059L355.577 161.09C355.764 161.121 355.959 161.155 356.147 161.195L356.509 161.295L356.952 161.464C357.124 161.542 357.295 161.631 357.464 161.718L357.783 161.917L358.169 162.208C358.311 162.336 358.458 162.471 358.594 162.608L358.91 162.972L359.135 163.284L359.193 163.376L359.386 163.714L390.121 243.32L390.151 243.423L390.236 243.804L390.25 243.907L390.294 244.289C390.303 244.483 390.307 244.678 390.307 244.872L390.275 245.25C390.243 245.44 390.208 245.632 390.168 245.822L390.069 246.182L389.901 246.627L389.69 247.052L389.642 247.139L389.389 247.539L389.16 247.836C389.031 247.984 388.894 248.129 388.756 248.266L388.393 248.583L388.079 248.807L387.65 249.056L387.557 249.105L308.044 279.795L307.941 279.825L307.56 279.908L307.456 279.924C299.294 280.873 290.764 281.394 282.542 282.112L282.331 279.998L282.652 279.96L282.941 279.897L283.262 279.792L361.847 249.46L362.145 249.327L362.347 249.211L362.634 249.006L362.829 248.836L362.985 248.666L363.187 248.405L363.313 248.207L363.433 247.963L363.53 247.713L363.616 247.415L363.653 247.2L363.681 246.861L363.676 246.645L363.644 246.346L363.579 246.059L363.476 245.739L333.142 167.151L333.025 166.885L332.862 166.601L332.724 166.407L332.497 166.151L332.347 166.009L332.125 165.839L331.854 165.67L331.645 165.566L331.395 165.469L331.096 165.385L330.883 165.345L330.545 165.317L330.493 165.321Z" fill="black"/>
<path fill-rule="evenodd" clip-rule="evenodd" d="M306.956 278.914L282.45 281.054L282.071 281.06L281.695 281.029L281.325 280.963L280.965 280.861L280.615 280.725L280.282 280.559L279.966 280.36L279.669 280.132L279.392 279.873L279.142 279.588L278.915 279.276L278.724 278.938L278.562 278.575L248.199 199.909L248.075 199.531L247.991 199.151L247.947 198.769L247.942 198.388L247.972 198.013L248.037 197.644L248.14 197.283L248.277 196.935L248.443 196.6L248.64 196.284L248.87 195.986L249.129 195.709L249.414 195.459L249.726 195.234L250.064 195.041L250.426 194.88L329.092 164.516L329.471 164.392L329.852 164.309L354.354 162.169L353.973 162.253L353.596 162.377L274.93 192.74L274.569 192.902L274.23 193.096L273.918 193.319L273.633 193.57L273.374 193.846L273.146 194.144L272.947 194.46L272.779 194.795L272.645 195.144L272.542 195.504L272.476 195.873L272.444 196.25L272.449 196.63L272.494 197.012L272.577 197.392L272.701 197.769L303.065 276.435L303.228 276.798L303.422 277.136L303.645 277.447L303.896 277.733L304.171 277.991L304.469 278.221L304.787 278.419L305.121 278.586L305.47 278.721L305.828 278.822L306.2 278.889L306.575 278.921L306.956 278.914Z" fill="#6DC56A"/>
<path d="M307.046 279.974L282.542 282.113L281.987 282.12L281.612 282.09C281.418 282.058 281.229 282.024 281.037 281.985L280.678 281.883L280.233 281.714L279.806 281.507L279.719 281.456L279.317 281.199L279.019 280.97C278.872 280.842 278.734 280.708 278.594 280.575L278.342 280.29L278.275 280.207L278.054 279.894L277.995 279.804L277.8 279.465L247.062 199.859L247.036 199.756L246.953 199.376L246.935 199.271L246.891 198.89C246.885 198.697 246.882 198.5 246.882 198.305L246.914 197.929C246.944 197.739 246.976 197.547 247.015 197.357L247.119 196.997L247.288 196.552C247.364 196.379 247.454 196.208 247.541 196.038L247.738 195.722C247.851 195.566 247.972 195.41 248.094 195.263L248.351 194.986L248.714 194.66L248.799 194.595L249.199 194.313L249.535 194.118L329.141 163.383L329.247 163.354L329.626 163.271L329.759 163.25L354.263 161.111L354.579 163.208L354.258 163.278L353.929 163.387L275.336 193.719L275.074 193.838L274.787 194L274.595 194.139L274.338 194.364L274.195 194.516L274.025 194.736L273.856 195.007L273.753 195.215L273.656 195.464L273.573 195.764L273.534 195.977L273.505 196.317L273.507 196.533L273.544 196.831L273.605 197.12L273.713 197.44L304.043 276.028L304.164 276.294L304.314 276.556L304.479 276.788L304.688 277.027L304.842 277.169L305.094 277.362L305.297 277.491L305.539 277.612L305.79 277.71L306.088 277.795L306.302 277.832L306.641 277.86L306.937 277.855L307.046 279.974ZM282.358 279.996L302.893 278.202L302.778 278.067L302.554 277.755L302.5 277.663L302.303 277.325L271.569 197.72L271.54 197.616L271.457 197.234L271.441 197.132L271.397 196.751C271.386 196.556 271.384 196.361 271.384 196.166L271.416 195.79C271.448 195.599 271.482 195.406 271.518 195.217L271.621 194.857L271.79 194.412C271.869 194.24 271.956 194.068 272.045 193.9L272.242 193.582L272.532 193.197C272.662 193.053 272.795 192.913 272.929 192.773L273.213 192.521C273.373 192.401 273.537 192.283 273.702 192.172L274.041 191.979C294.884 182.037 324.395 172.511 346.692 163.907L330.005 165.363L329.743 165.42L329.421 165.526L250.835 195.858L250.567 195.976L250.286 196.139L250.068 196.295L249.878 196.462L249.674 196.679L249.522 196.877L249.352 197.146L249.249 197.355L249.152 197.604L249.067 197.902L249.029 198.115L249.003 198.455L249.006 198.673L249.04 198.971L249.102 199.26L249.208 199.58L279.54 278.167L279.659 278.434L279.808 278.696L279.975 278.927L280.184 279.167L280.338 279.308L280.589 279.502L280.795 279.63L281.034 279.752L281.288 279.848L281.587 279.933L281.8 279.972L282.138 279.999L282.358 279.996Z" fill="black"/>
<path fill-rule="evenodd" clip-rule="evenodd" d="M275.281 193.721L353.995 163.34C355.443 162.781 357.083 163.508 357.643 164.956L388.025 243.67C388.583 245.118 387.857 246.76 386.409 247.319L307.694 277.7C306.246 278.258 304.604 277.532 304.044 276.084L273.664 197.369C273.106 195.922 273.832 194.279 275.281 193.721Z" fill="#F9F3E7"/>
<path fill-rule="evenodd" clip-rule="evenodd" d="M248.12 197.348L272.644 195.146C272.683 195.027 272.729 194.91 272.779 194.795C272.828 194.681 272.885 194.571 272.945 194.464C272.947 194.462 272.947 194.459 272.949 194.456C273.007 194.352 273.073 194.249 273.142 194.148L273.146 194.143L273.149 194.138C273.218 194.038 273.294 193.94 273.374 193.846C273.454 193.752 273.539 193.661 273.628 193.574L273.633 193.57L273.635 193.565C273.724 193.48 273.818 193.398 273.917 193.32C274.016 193.241 274.12 193.167 274.227 193.097C274.23 193.095 274.23 193.094 274.232 193.093C274.34 193.024 274.448 192.961 274.565 192.903C274.567 192.902 274.569 192.901 274.571 192.899C274.688 192.84 274.808 192.787 274.931 192.74L353.596 162.376C353.72 162.327 353.846 162.287 353.973 162.252C354.097 162.218 354.223 162.191 354.351 162.169L330.385 164.262L329.852 164.308L329.471 164.392L329.092 164.516L250.424 194.88L250.064 195.041L249.725 195.234L249.414 195.459L249.129 195.709L248.87 195.985L248.639 196.283L248.443 196.6L248.276 196.934L248.139 197.283L248.12 197.348Z" fill="#478145"/>
<path d="M250.385 196.081L271.914 194.147L272.022 193.939C272.059 193.873 272.099 193.806 272.139 193.74L272.276 193.533C272.302 193.493 272.352 193.428 272.414 193.345C272.634 193.073 272.814 192.881 273.071 192.645C273.106 192.61 273.17 192.557 273.252 192.493C273.598 192.233 273.92 192.022 274.317 191.846C274.361 191.825 274.439 191.793 274.549 191.751L346.69 163.907L330.006 165.363L329.743 165.42L329.421 165.526L250.835 195.858L250.568 195.977L250.385 196.081ZM272.735 196.2L248.289 198.397C248.142 198.42 247.988 198.413 247.833 198.37C247.27 198.211 246.94 197.625 247.098 197.061C247.141 196.911 247.203 196.767 247.259 196.622C247.275 196.568 247.298 196.514 247.323 196.46L247.49 196.125L247.493 196.128L247.545 196.038L247.706 195.78C247.735 195.73 247.766 195.681 247.802 195.635L248.032 195.337L248.315 195.028C248.349 194.988 248.386 194.948 248.429 194.912L248.652 194.719C248.694 194.672 248.742 194.632 248.796 194.594L249.106 194.37L249.199 194.313L249.535 194.118C284.096 180.812 304.376 172.983 328.765 163.506L329.094 163.398C329.142 163.379 329.194 163.365 329.247 163.354L329.582 163.281C329.638 163.265 329.697 163.255 329.759 163.25L354.258 161.111C354.805 161.064 355.305 161.445 355.397 161.995C355.493 162.573 355.101 163.121 354.522 163.217L354.383 163.246C354.242 163.281 354.116 163.318 353.978 163.366L275.312 193.729C274.589 194.042 274.183 194.412 273.804 195.101C273.752 195.22 273.701 195.335 273.655 195.457C273.534 195.858 273.176 196.163 272.735 196.2Z" fill="black"/>
</svg>
