<svg width="609" height="137" viewBox="0 0 609 137" fill="none" xmlns="http://www.w3.org/2000/svg">
<path d="M171.893 40.1836H6.61127C2.97511 40.1836 0 43.1635 0 46.8056V86.5372C0 90.1793 2.97505 93.1592 6.61127 93.1592H171.893C175.529 93.1592 178.504 90.1793 178.504 86.5373V46.8056C178.504 43.1635 175.529 40.1836 171.893 40.1836M171.893 41.2431C174.955 41.2431 177.446 43.7388 177.446 46.8056V86.5372C177.446 89.6046 174.955 92.1003 171.893 92.1003H6.61127C3.54949 92.1003 1.05781 89.6045 1.05781 86.5373V46.8056C1.05781 43.7388 3.54943 41.2431 6.61127 41.2431H171.893" fill="#A6A6A6"/>
<path d="M62.6995 53.7514C62.6995 54.861 62.3714 55.7446 61.7144 56.4037C60.968 57.1875 59.9954 57.5797 58.7997 57.5797C57.6546 57.5797 56.681 57.1824 55.8804 56.3866C55.0783 55.5915 54.6781 54.6054 54.6781 53.429C54.6781 52.252 55.0783 51.2666 55.8804 50.4708C56.681 49.6757 57.6546 49.2778 58.7997 49.2778C59.3679 49.2778 59.9118 49.3891 60.4283 49.6111C60.9448 49.8336 61.359 50.1289 61.669 50.4988L60.9716 51.1977C60.4464 50.5691 59.7233 50.2551 58.7997 50.2551C57.9646 50.2551 57.2425 50.549 56.633 51.1372C56.0235 51.726 55.7188 52.4895 55.7188 53.429C55.7188 54.3686 56.0235 55.132 56.633 55.7209C57.2425 56.3091 57.9645 56.6029 58.7997 56.6029C59.6856 56.6029 60.4242 56.3075 61.0155 55.7157C61.3994 55.3302 61.6213 54.7943 61.6807 54.1062H58.7996V53.1517H62.6441C62.6812 53.3593 62.6993 53.5584 62.6993 53.7514" fill="white"/>
<path d="M62.6989 53.7514H62.5666C62.5655 54.8357 62.2493 55.6779 61.6202 56.3101L61.6188 56.3112L61.6182 56.3123C60.8957 57.069 59.9668 57.4457 58.799 57.4473C57.6845 57.4457 56.7517 57.0649 55.9727 56.293C55.1955 55.5196 54.8111 54.5754 54.8097 53.429C54.8111 52.2821 55.1955 51.3385 55.9727 50.5656C56.7517 49.7932 57.6845 49.4119 58.799 49.4103C59.3502 49.4103 59.875 49.518 60.3754 49.7327C60.8764 49.949 61.2722 50.2324 61.5671 50.5843L61.6683 50.4988L61.5749 50.4052L60.8775 51.1046L60.9709 51.1977L61.0728 51.113C60.5231 50.4533 59.7516 50.1207 58.7991 50.1227C57.933 50.1216 57.1711 50.4316 56.5409 51.0421C55.9046 51.6546 55.5849 52.4611 55.586 53.429C55.5849 54.397 55.9046 55.2035 56.5409 55.816C57.1711 56.4265 57.933 56.7365 58.799 56.7354C59.7143 56.737 60.4943 56.426 61.1084 55.8094C61.5185 55.3975 61.751 54.827 61.8119 54.1176L61.8242 53.9738H58.9313V53.2842H62.6435V53.1517L62.5133 53.175C62.5495 53.3758 62.5665 53.5667 62.5665 53.7514H62.831C62.831 53.5501 62.8124 53.3432 62.7736 53.128L62.754 53.0193H58.6669V54.2387H61.6801V54.1062L61.5485 54.0949C61.4902 54.7613 61.2783 55.2631 60.9214 55.6222C60.3533 56.1891 59.656 56.4689 58.7991 56.4705C57.9949 56.4695 57.3126 56.1921 56.7243 55.6257C56.1417 55.0612 55.8519 54.3406 55.8504 53.429C55.8519 52.5175 56.1417 51.7969 56.7243 51.2324C57.3126 50.6659 57.9949 50.3886 58.7991 50.3876C59.6932 50.3897 60.3684 50.6856 60.8699 51.2831L60.9629 51.3938L61.7619 50.5925L61.8476 50.5067L61.7695 50.4139C61.4447 50.026 61.0118 49.7181 60.4798 49.4896C59.9468 49.2603 59.3843 49.1454 58.7991 49.1454C57.6236 49.1444 56.6092 49.5583 55.7863 50.3773C54.9605 51.1947 54.5442 52.2221 54.5453 53.429C54.5442 54.6354 54.9605 55.6635 55.7869 56.4814C56.6092 57.2998 57.6236 57.7132 58.7991 57.7121C60.0232 57.7132 61.0387 57.306 61.8094 56.4953L61.7137 56.4037L61.8072 56.4974C62.4921 55.8119 62.8319 54.8859 62.831 53.7514H62.6988M68.7935 50.4321H65.1805V52.9516H68.4387V53.9065H65.1805V56.426H68.7935V57.4022H64.162V49.4559H68.7935V50.4321Z" fill="white"/>
<path d="M68.7938 50.4319V50.2995H65.0486V53.0839H68.3068V53.7735L65.0486 53.7738V56.5582H68.6615V57.2696H64.2946V49.5881H68.6615V50.4319H68.7938V50.2995V50.4319H68.926V49.3232H64.0301V57.5344H68.926V56.2934H65.313V54.0387H68.5712V52.819H65.313V50.5643H68.926V50.4319H68.7938ZM73.0926 57.4021H72.0726V50.4318H69.8567V49.4556H75.3085V50.4318H73.0926V57.402" fill="white"/>
<path d="M73.0929 57.4021V57.2696H72.2051V50.2995H69.9893V49.5882H75.1765V50.2995H72.9607V57.402H73.0929V57.2696V57.402H73.2252V50.5643H75.441V49.3232H69.7248V50.5643H71.9406V57.5344H73.2252V57.4019H73.0929M79.2533 57.4021V49.4556H80.2724V57.4019H79.2533" fill="white"/>
<path d="M79.253 57.4021H79.3852V49.5881H80.1398V57.2696H79.253V57.402H79.3852H79.253V57.5344H80.4042V49.3232H79.1208V57.5344H79.253V57.402M84.794 57.4021H83.7739V50.4318H81.5582V49.4556H87.0098V50.4318H84.794V57.402" fill="white"/>
<path d="M84.7943 57.4022V57.2697H83.9064V50.2996H81.6908V49.5883H86.8779V50.2996H84.6621V57.4022H84.7943V57.2697V57.4022H84.9266V50.5645H87.1424V49.3234H81.4263V50.5644H83.642V57.5346H84.9266V57.4021H84.7943M92.2662 55.71C92.8533 56.3054 93.5719 56.6029 94.4215 56.6029C95.2712 56.6029 95.9901 56.3054 96.5764 55.71C97.1642 55.1146 97.4586 54.3534 97.4586 53.429C97.4586 52.5046 97.1642 51.7435 96.5764 51.148C95.9901 50.5526 95.2712 50.2551 94.4215 50.2551C93.5719 50.2551 92.8533 50.5526 92.2662 51.148C91.6799 51.7435 91.3855 52.5046 91.3855 53.429C91.3855 54.3534 91.6799 55.1146 92.2662 55.71ZM97.3305 56.3753C96.5505 57.1786 95.5805 57.5797 94.4215 57.5797C93.2614 57.5797 92.2919 57.1786 91.5136 56.3753C90.7331 55.5728 90.3447 54.5905 90.3447 53.429C90.3447 52.2675 90.7331 51.2851 91.5136 50.4828C92.2919 49.6792 93.2614 49.2778 94.4215 49.2778C95.5744 49.2778 96.5417 49.6814 97.3253 50.4879C98.1078 51.2945 98.4993 52.2748 98.4993 53.429C98.4993 54.5905 98.1088 55.5728 97.3305 56.3753Z" fill="white"/>
<path d="M92.2658 55.7101L92.1718 55.8032C92.7808 56.4224 93.5406 56.737 94.4212 56.7354C95.3013 56.737 96.0621 56.4224 96.6701 55.8032C97.2831 55.1833 97.5914 54.3814 97.5905 53.429C97.5914 52.4767 97.2831 51.6748 96.6701 51.0549C96.0621 50.4357 95.3013 50.1212 94.4212 50.1227C93.5406 50.1212 92.7808 50.4357 92.1718 51.0549C91.5603 51.6748 91.2514 52.4767 91.253 53.429C91.2514 54.3814 91.5603 55.1833 92.1718 55.8032L92.2658 55.7101L92.3599 55.6169C91.799 55.0452 91.5185 54.3261 91.5174 53.429C91.5185 52.5321 91.799 51.8129 92.3598 51.2412C92.9259 50.6696 93.602 50.3892 94.4212 50.3876C95.2398 50.3892 95.9175 50.6696 96.4821 51.2412C97.044 51.8129 97.3245 52.5321 97.3255 53.429C97.3245 54.326 97.044 55.0452 96.4821 55.6169C95.9175 56.1886 95.2399 56.4689 94.4212 56.4705C93.602 56.4689 92.9259 56.1886 92.3598 55.6169L92.2658 55.7101ZM97.3301 56.3753L97.2356 56.2833C96.4774 57.0613 95.5503 57.4457 94.4212 57.4473C93.2916 57.4457 92.3645 57.0613 91.6077 56.2833L91.6041 56.2791L91.6077 56.2833C90.8511 55.5025 90.4778 54.561 90.4767 53.429C90.4778 52.2971 90.8511 51.3556 91.6077 50.5749C92.3645 49.7968 93.2916 49.4119 94.4212 49.4103C95.543 49.4119 96.468 49.7984 97.2304 50.5805C97.9897 51.3648 98.3652 52.3049 98.3668 53.429C98.3652 54.561 97.9908 55.5025 97.2356 56.2833L97.3301 56.3753L97.4253 56.4673C98.2268 55.6428 98.6322 54.62 98.6313 53.429C98.6322 52.2449 98.2252 51.2242 97.42 50.396C96.6143 49.5644 95.605 49.144 94.4212 49.1454C93.2312 49.144 92.2189 49.5625 91.4183 50.3908V50.3902C90.6151 51.2153 90.2112 52.2381 90.2122 53.429C90.2112 54.62 90.6151 55.6428 91.4183 56.4678L91.4218 56.4716L91.4183 56.4673C92.2189 57.2956 93.2312 57.7132 94.4212 57.7121C95.6107 57.7132 96.623 57.2956 97.4253 56.4673L97.3301 56.3753ZM99.9297 57.4023V49.4558H101.17L105.026 55.6375H105.07L105.026 54.1062V49.4558H106.046V57.4022H104.982L100.948 50.9209H100.904L100.948 52.4528V57.4022H99.9297" fill="white"/>
<path d="M99.9297 57.4021H100.062V49.5881H101.097L104.953 55.7698H105.206L105.158 54.1041V49.5882H105.914V57.2696H105.056L101.022 50.7883H100.769L100.816 52.4548V57.2696H99.9297V57.402H100.062H99.9297V57.5344H101.08V52.4505L101.037 50.9172L100.904 50.9207V51.0532H100.948V50.9207L100.836 50.9911L104.909 57.5344H106.178V49.3232H104.894V54.1076L104.938 55.6409L105.07 55.6374V55.5049H105.026V55.6374L105.138 55.5671L101.244 49.3232H99.7975V57.5344H99.9298V57.402M141.396 79.9166H143.864V63.3602H141.396L141.396 79.9166ZM163.619 69.3242L160.791 76.5023H160.707L157.771 69.3242H155.113L159.515 79.3568L157.006 84.9374H159.58L166.363 69.3242L163.619 69.3242ZM149.627 78.0362C148.818 78.0362 147.692 77.6316 147.692 76.6301C147.692 75.3521 149.096 74.8623 150.307 74.8623C151.393 74.8623 151.902 75.0965 152.561 75.4164C152.37 76.9497 151.051 78.0362 149.627 78.0362ZM149.925 68.962C148.138 68.962 146.289 69.7503 145.523 71.497L147.713 72.4127C148.181 71.497 149.052 71.1984 149.967 71.1984C151.243 71.1984 152.54 71.9657 152.561 73.3289V73.4991C152.115 73.2435 151.159 72.8602 149.988 72.8602C147.628 72.8602 145.224 74.1591 145.224 76.5876C145.224 78.8029 147.16 80.2301 149.329 80.2301C150.988 80.2301 151.902 79.4846 152.477 78.6115H152.561V79.8893H154.943V73.5414C154.943 70.6025 152.753 68.962 149.925 68.962ZM134.677 71.3396H131.167V65.6645H134.677C136.521 65.6645 137.568 67.1942 137.568 68.502C137.568 69.785 136.521 71.3396 134.677 71.3396ZM134.613 63.3602H128.701V79.9166H131.167V73.6439H134.613C137.348 73.6439 140.036 71.6609 140.036 68.502C140.036 65.3432 137.348 63.3602 134.613 63.3602ZM102.375 78.0392C100.671 78.0392 99.2437 76.6098 99.2437 74.6465C99.2437 72.6626 100.671 71.2114 102.375 71.2114C104.058 71.2114 105.379 72.6625 105.379 74.6465C105.379 76.6098 104.058 78.0392 102.375 78.0392H102.375ZM105.208 70.2513H105.123C104.569 69.59 103.504 68.9926 102.162 68.9926C99.3502 68.9926 96.7728 71.4675 96.7728 74.6465C96.7728 77.8044 99.3501 80.2581 102.162 80.2581C103.504 80.2581 104.569 79.6605 105.123 78.9782H105.208V79.7888C105.208 81.9442 104.058 83.0963 102.205 83.0963C100.692 83.0963 99.7551 82.0077 99.3713 81.0905L97.2202 81.9865C97.8379 83.4801 99.4782 85.3152 102.205 85.3152C105.102 85.3152 107.552 83.6078 107.552 79.4474V69.334H105.208V70.2513ZM109.256 79.9166H111.727V63.3596H109.256V79.9166ZM115.369 74.4546C115.306 72.2781 117.052 71.1689 118.309 71.1689C119.29 71.1689 120.12 71.6594 120.396 72.3641L115.369 74.4546ZM123.038 72.5771C122.57 71.3179 121.142 68.9926 118.224 68.9926C115.327 68.9926 112.92 71.2755 112.92 74.6253C112.92 77.7832 115.306 80.2581 118.501 80.2581C121.079 80.2581 122.57 78.6791 123.188 77.7618L121.27 76.4814C120.632 77.4204 119.758 78.0392 118.501 78.0392C117.244 78.0392 116.349 77.4629 115.774 76.3324L123.293 73.2171L123.038 72.5771ZM63.1293 70.7209V73.1105H68.8381C68.6677 74.4546 68.2203 75.436 67.5386 76.1188C66.7081 76.9512 65.4086 77.8685 63.1292 77.8685C59.6143 77.8685 56.8666 75.0308 56.8666 71.5103C56.8666 67.9899 59.6143 65.1519 63.1293 65.1519C65.0253 65.1519 66.4095 65.8988 67.4321 66.8589L69.115 65.1735C67.6879 63.8077 65.7918 62.7623 63.1293 62.7623C58.3148 62.7623 54.2675 66.6883 54.2675 71.5103C54.2675 76.3324 58.3148 80.2581 63.1293 80.2581C65.7283 80.2581 67.6879 79.4051 69.2214 77.8044C70.7978 76.2254 71.288 74.0066 71.288 72.2145C71.288 71.6594 71.2456 71.1477 71.1598 70.7209H63.1293ZM77.7784 78.0392C76.0739 78.0392 74.6039 76.6309 74.6039 74.6253C74.6039 72.5983 76.0739 71.2114 77.7784 71.2114C79.4822 71.2114 80.9522 72.5983 80.9522 74.6253C80.9522 76.631 79.4822 78.0392 77.7784 78.0392ZM77.7784 68.9926C74.6679 68.9926 72.1329 71.3608 72.1329 74.6253C72.1329 77.8685 74.6679 80.2581 77.7784 80.2581C80.8882 80.2581 83.4232 77.8685 83.4232 74.6253C83.4232 71.3608 80.8882 68.9926 77.7784 68.9926ZM90.0928 78.0392C88.389 78.0392 86.9188 76.6309 86.9188 74.6253C86.9188 72.5983 88.389 71.2114 90.0928 71.2114C91.7968 71.2114 93.2667 72.5983 93.2667 74.6253C93.2667 76.631 91.7968 78.0392 90.0928 78.0392H90.0928ZM90.0928 68.9926C86.9825 68.9926 84.448 71.3608 84.448 74.6253C84.448 77.8685 86.9825 80.2581 90.0928 80.2581C93.2027 80.2581 95.7378 77.8685 95.7378 74.6253C95.7378 71.3608 93.2027 68.9926 90.0928 68.9926H90.0928Z" fill="white"/>
<path d="M13.8947 50.2626C13.451 50.6636 13.1861 51.3324 13.1861 52.2202V52.0195V81.3165V81.1235C13.1861 81.9434 13.4133 82.5766 13.7981 82.9844L13.8963 83.0786V83.079C14.2077 83.3604 14.607 83.5099 15.0647 83.5094C15.5119 83.5094 16.015 83.3666 16.546 83.0651L35.7388 72.1425L42.3313 68.3902C43.1686 67.9138 43.6387 67.2992 43.7172 66.6731V66.6706C43.6387 66.0431 43.1686 65.429 42.3314 64.9525L35.7382 61.2007L16.546 50.2781C16.0139 49.976 15.5104 49.8327 15.0621 49.8327C14.6049 49.8327 14.2061 49.9816 13.8948 50.2626H13.8947Z" fill="#00C1FF"/>
<path d="M13.8963 83.0789L13.7981 82.9847C13.4133 82.577 13.1861 81.9437 13.1861 81.1238V81.3168V52.0271V52.2205C13.1861 51.3327 13.451 50.6639 13.8947 50.2629L30.2772 66.6714L13.8963 83.0789Z" fill="url(#paint0_linear_1029_31631)"/>
<path d="M35.739 72.1427L30.2774 66.6714L35.7385 61.2009L42.3316 64.9527C43.1689 65.4292 43.6389 66.0433 43.7175 66.6708V66.6733C43.6389 67.2994 43.1689 67.914 42.3316 68.3904L35.7391 72.1426" fill="url(#paint1_linear_1029_31631)"/>
<path d="M15.0654 83.5099C14.6078 83.5103 14.2085 83.3608 13.8971 83.0793V83.0789L30.278 66.6715L35.7395 72.1428L16.5467 83.0655C16.0157 83.3671 15.5126 83.5099 15.0654 83.5099Z" fill="url(#paint2_linear_1029_31631)"/>
<path d="M30.2772 66.673L13.8946 50.2645C14.206 49.9835 14.6048 49.8345 15.0619 49.8345C15.5103 49.8345 16.0138 49.9778 16.5459 50.2799L35.7382 61.2026L30.2771 66.673" fill="url(#paint3_linear_1029_31631)"/>
<path d="M15.0652 83.7063C14.6076 83.7063 14.2077 83.5568 13.8963 83.2754L13.8958 83.2759C13.8945 83.2746 13.8931 83.2734 13.8917 83.2723L13.8065 83.189C13.8038 83.1864 13.8013 83.1833 13.7981 83.1803L13.8964 83.0819C14.2078 83.3633 14.607 83.5128 15.0648 83.5123C15.5119 83.5123 16.015 83.3696 16.546 83.068L35.7388 72.1453L35.8617 72.2685L35.7372 72.3394L16.5459 83.2614C16.062 83.5362 15.6018 83.6794 15.186 83.7033C15.1458 83.7053 15.1055 83.7063 15.0652 83.7063" fill="url(#paint4_linear_1029_31631)"/>
<path d="M13.7981 83.1802C13.4133 82.7725 13.1861 82.1398 13.1861 81.3193V81.1264C13.1861 81.9463 13.4133 82.5795 13.7981 82.9872L13.8963 83.0814L13.7981 83.1802Z" fill="url(#paint5_linear_1029_31631)"/>
<path d="M35.8617 72.2663L35.7387 72.1431L42.3313 68.3908C43.1686 67.9145 43.6386 67.2998 43.7172 66.6738C43.7172 66.9035 43.666 67.1332 43.5643 67.3568C43.3592 67.8073 42.9481 68.2331 42.3313 68.5843L35.8617 72.2663" fill="url(#paint6_linear_1029_31631)"/>
<path d="M43.7173 66.6728C43.6387 66.0453 43.1687 65.4312 42.3314 64.9547L35.7383 61.2029L35.8612 61.0797H35.8618L42.3314 64.7617C43.2545 65.2873 43.7167 65.98 43.7173 66.6728Z" fill="url(#paint7_linear_1029_31631)"/>
<path d="M13.1861 52.2206V52.0182C13.1861 51.9452 13.1881 51.8739 13.1918 51.8046V51.8014C13.1918 51.8005 13.1918 51.7995 13.1922 51.7984V51.7906C13.232 51.0844 13.451 50.5335 13.7981 50.1657L13.8947 50.2629C13.451 50.6639 13.1861 51.3327 13.1861 52.2206Z" fill="url(#paint8_linear_1029_31631)"/>
<path d="M35.7381 61.2008L16.5459 50.2781C16.0138 49.976 15.5104 49.8327 15.062 49.8327C14.6049 49.8327 14.2061 49.9817 13.8947 50.2626L13.798 50.1654C13.8282 50.1334 13.8596 50.1025 13.8921 50.0728C13.8931 50.0718 13.8947 50.0707 13.8957 50.0697C14.2046 49.7909 14.5992 49.6419 15.0522 49.6392H15.062C15.5104 49.6392 16.0138 49.7825 16.5459 50.0847L35.8616 61.0772L35.8611 61.0776L35.7381 61.2008Z" fill="url(#paint9_linear_1029_31631)"/>
<g filter="url(#filter0_d_1029_31631)">
<path d="M366.445 91.3171H366.444H199.609H199.608C198.455 91.3183 197.348 90.8615 196.531 90.0472C195.715 89.2329 195.256 88.128 195.254 86.9753V46.3742C195.256 45.2207 195.715 44.1149 196.531 43.2996C197.348 42.4842 198.455 42.026 199.609 42.0257C199.609 42.0257 199.609 42.0257 199.609 42.0257H366.443C367.014 42.0257 367.579 42.1382 368.107 42.3567C368.634 42.5752 369.114 42.8955 369.518 43.2993C369.921 43.703 370.242 44.1823 370.46 44.7098C370.678 45.2373 370.791 45.8026 370.791 46.3735L370.792 86.9758C370.792 87.5462 370.68 88.1111 370.461 88.6381C370.242 89.1651 369.922 89.6439 369.518 90.0471C369.115 90.4503 368.635 90.77 368.108 90.9879C367.581 91.2059 367.015 91.3177 366.445 91.3171Z" stroke="#989898" stroke-width="1.5" shape-rendering="crispEdges"/>
</g>
<path d="M233.382 66.3919C233.343 62.1074 236.891 60.023 237.053 59.9259C235.044 56.9974 231.929 56.5973 230.835 56.5654C228.22 56.2902 225.683 58.13 224.35 58.13C222.991 58.13 220.94 56.592 218.728 56.6372C215.883 56.681 213.221 58.3281 211.761 60.8857C208.748 66.1007 210.995 73.7644 213.882 77.9797C215.326 80.0455 217.013 82.3493 219.222 82.2682C221.382 82.1804 222.189 80.8923 224.797 80.8923C227.381 80.8923 228.139 82.2682 230.391 82.2163C232.71 82.1804 234.17 80.1426 235.564 78.0595C237.232 75.6946 237.902 73.3629 237.929 73.2433C237.876 73.2247 233.427 71.5258 233.382 66.3919ZM229.126 53.7924C230.289 52.3394 231.084 50.3627 230.863 48.3567C229.181 48.4311 227.077 49.5199 225.866 50.9409C224.794 52.1932 223.837 54.2457 224.084 56.1759C225.974 56.3168 227.914 55.2227 229.126 53.7924Z" fill="white"/>
<path d="M264.679 81.9717H261.659L260.005 76.7753H254.255L252.679 81.9717H249.739L255.437 64.2809H258.956L264.679 81.9717ZM259.506 74.5952L258.01 69.9758C257.852 69.5038 257.554 68.3925 257.118 66.6431H257.065C256.889 67.3955 256.609 68.5068 256.224 69.9758L254.754 74.5952H259.506ZM279.303 75.4367C279.303 77.6062 278.713 79.321 277.534 80.5799C276.478 81.7005 275.166 82.2602 273.601 82.2602C271.911 82.2602 270.695 81.658 269.957 80.451V87.1442H267.123V73.4081C267.123 72.0455 267.087 70.6484 267.017 69.2154H269.511L269.669 71.2373H269.722C270.667 69.7139 272.102 68.9522 274.028 68.9522C275.533 68.9522 276.789 69.5464 277.795 70.7361C278.799 71.9286 279.303 73.4945 279.303 75.4367ZM276.414 75.5404C276.414 74.2988 276.135 73.2752 275.574 72.4683C274.961 71.6295 274.138 71.2094 273.106 71.2094C272.407 71.2094 271.771 71.4433 271.203 71.9046C270.634 72.3699 270.262 72.9774 270.088 73.7298C270.01 74.0112 269.966 74.3008 269.956 74.5926V76.7208C269.956 77.6474 270.241 78.4304 270.81 79.0711C271.379 79.7092 272.118 80.0296 273.028 80.0296C274.095 80.0296 274.926 79.6161 275.521 78.7959C276.117 77.9731 276.414 76.8883 276.414 75.5404ZM293.978 75.4367C293.978 77.6062 293.389 79.321 292.21 80.5799C291.153 81.7005 289.842 82.2602 288.275 82.2602C286.585 82.2602 285.37 81.658 284.632 80.451V87.1442H281.797V73.4081C281.797 72.0455 281.761 70.6484 281.692 69.2154H284.185L284.343 71.2373H284.397C285.341 69.7139 286.775 68.9522 288.702 68.9522C290.206 68.9522 291.463 69.5464 292.47 70.7361C293.473 71.9286 293.978 73.4945 293.978 75.4367ZM291.089 75.5404C291.089 74.2988 290.808 73.2752 290.247 72.4683C289.634 71.6295 288.814 71.2094 287.782 71.2094C287.083 71.2094 286.447 71.4433 285.877 71.9046C285.307 72.3699 284.936 72.9774 284.762 73.7298C284.676 74.0808 284.629 74.3666 284.629 74.5926V76.7208C284.629 77.6474 284.915 78.4304 285.482 79.0711C286.051 79.7079 286.79 80.0296 287.702 80.0296C288.771 80.0296 289.602 79.6161 290.195 78.7959C290.791 77.9731 291.089 76.8883 291.089 75.5404ZM310.387 77.0093C310.387 78.5154 309.86 79.7398 308.814 80.6849C307.662 81.7165 306.055 82.2336 303.994 82.2336C302.089 82.2336 300.563 81.8667 299.411 81.1316L300.067 78.7693C301.31 79.5058 302.676 79.8727 304.162 79.8727C305.232 79.8727 306.063 79.6308 306.656 79.1509C307.25 78.6696 307.55 78.0262 307.55 77.2233C307.55 76.5041 307.302 75.902 306.814 75.4114C306.323 74.9222 305.512 74.4663 304.373 74.0475C301.274 72.8923 299.724 71.2027 299.724 68.9801C299.724 67.5284 300.272 66.34 301.365 65.4108C302.458 64.4829 303.907 64.019 305.71 64.019C307.32 64.019 308.662 64.2995 309.727 64.8591L309.016 67.1695C308.013 66.6271 306.882 66.356 305.616 66.356C304.616 66.356 303.831 66.6019 303.27 67.0911C302.798 67.5284 302.559 68.0615 302.559 68.6943C302.559 69.3922 302.831 69.9718 303.374 70.4264C303.845 70.8451 304.704 71.3011 305.946 71.7903C307.469 72.4045 308.589 73.1196 309.306 73.9412C310.028 74.7627 310.387 75.7876 310.387 77.0093ZM319.784 71.3423H316.659V77.5357C316.659 79.111 317.209 79.8966 318.313 79.8966C318.82 79.8966 319.24 79.8541 319.572 79.765L319.651 81.9172C319.092 82.1259 318.357 82.2309 317.446 82.2309C316.326 82.2309 315.452 81.8893 314.82 81.206C314.191 80.5227 313.875 79.3782 313.875 77.767V71.337H312.013V69.2101H313.875V66.8744L316.659 66.0343V69.2101H319.784V71.3423ZM333.854 75.4885C333.854 77.4493 333.293 79.0591 332.174 80.318C331.002 81.6141 329.444 82.2602 327.501 82.2602C325.626 82.2602 324.136 81.6394 323.024 80.3991C321.913 79.1562 321.357 77.5902 321.357 75.7012C321.357 73.7245 321.931 72.1054 323.076 70.8465C324.224 69.5863 325.769 68.9562 327.711 68.9562C329.584 68.9562 331.087 69.5783 332.226 70.8199C333.313 72.0243 333.854 73.5796 333.854 75.4885ZM330.916 75.5537C330.916 74.3852 330.663 73.3829 330.157 72.544C329.562 71.5311 328.711 71.0246 327.609 71.0246C326.473 71.0246 325.602 71.5311 325.009 72.544C324.501 73.3829 324.249 74.4025 324.249 75.6068C324.249 76.7767 324.501 77.7816 325.009 78.6178C325.622 79.6308 326.477 80.1372 327.585 80.1372C328.669 80.1372 329.518 79.6201 330.133 78.5925C330.654 77.7338 330.916 76.7248 330.916 75.5537ZM343.073 71.7079C342.778 71.6547 342.479 71.6284 342.18 71.6295C341.182 71.6295 340.411 72.0043 339.869 72.7594C339.398 73.4241 339.161 74.2642 339.161 75.2785V81.9717H336.326V73.2326C336.329 71.8935 336.301 70.5546 336.244 69.2167H338.713L338.817 71.6574H338.895C339.196 70.8186 339.667 70.1419 340.313 69.6354C340.904 69.1929 341.623 68.9532 342.362 68.9522C342.624 68.9522 342.86 68.9708 343.071 69.004L343.073 71.7079ZM355.752 74.99C355.759 75.4209 355.724 75.8514 355.648 76.2755H347.143C347.175 77.5357 347.588 78.5008 348.377 79.1655C349.094 79.7584 350.021 80.0561 351.159 80.0561C352.418 80.0561 353.567 79.8567 354.6 79.454L355.044 81.4201C353.837 81.9465 352.412 82.2084 350.767 82.2084C348.788 82.2084 347.235 81.6261 346.105 80.4643C344.977 79.3011 344.412 77.7378 344.412 75.7797C344.412 73.8574 344.937 72.2556 345.989 70.9781C347.09 69.6142 348.578 68.9322 350.45 68.9322C352.289 68.9322 353.682 69.6142 354.627 70.9781C355.376 72.0588 355.752 73.3988 355.752 74.99ZM353.049 74.2549C353.069 73.4134 352.882 72.6889 352.498 72.0761C352.007 71.2865 351.252 70.893 350.24 70.893C349.313 70.893 348.558 71.2772 347.984 72.0482C347.512 72.661 347.231 73.3975 347.145 74.2522L353.049 74.2549Z" fill="white"/>
<path d="M253.437 58.0266C252.649 58.0266 251.967 57.988 251.399 57.9229V49.3699C252.193 49.2473 252.995 49.1868 253.799 49.1891C257.05 49.1891 258.547 50.7883 258.547 53.3951C258.547 56.4021 256.779 58.0266 253.437 58.0266ZM253.913 50.2858C253.474 50.2858 253.101 50.3124 252.791 50.3762V56.878C252.959 56.9046 253.28 56.9166 253.732 56.9166C255.863 56.9166 257.075 55.7042 257.075 53.4337C257.075 51.4091 255.978 50.2858 253.913 50.2858ZM263.213 58.0917C261.381 58.0917 260.193 56.7238 260.193 54.8667C260.193 52.9312 261.406 51.5513 263.317 51.5513C265.123 51.5513 266.337 52.8541 266.337 54.7644C266.337 56.7238 265.085 58.0917 263.213 58.0917ZM263.266 52.5696C262.26 52.5696 261.615 53.5108 261.615 54.8268C261.615 56.1176 262.273 57.0588 263.253 57.0588C264.233 57.0588 264.891 56.0525 264.891 54.8002C264.891 53.5241 264.246 52.5696 263.266 52.5696ZM276.785 51.6803L274.824 57.9495H273.546L272.734 55.227C272.532 54.561 272.364 53.8853 272.23 53.2024H272.203C272.101 53.8857 271.907 54.5703 271.701 55.227L270.836 57.9495H269.545L267.7 51.6803H269.132L269.842 54.6607C270.009 55.3705 270.15 56.0405 270.267 56.6733H270.294C270.396 56.1455 270.564 55.4862 270.81 54.674L271.701 51.6816H272.836L273.688 54.6101C273.895 55.32 274.062 56.0166 274.192 56.6746H274.23C274.32 56.0299 274.462 55.3453 274.655 54.6101L275.417 51.6816L276.785 51.6803ZM284.006 57.9495H282.612V54.3496C282.612 53.2409 282.187 52.6853 281.347 52.6853C280.522 52.6853 279.954 53.3951 279.954 54.2207V57.9495H278.56V53.4722C278.56 52.9179 278.547 52.3237 278.509 51.679H279.735L279.8 52.6467H279.838C280.213 51.9767 280.974 51.5513 281.826 51.5513C283.143 51.5513 284.007 52.5576 284.007 54.1954L284.006 57.9495ZM287.848 57.9495H286.454V48.8036H287.848V57.9495ZM292.929 58.0917C291.098 58.0917 289.909 56.7238 289.909 54.8667C289.909 52.9312 291.122 51.5513 293.032 51.5513C294.839 51.5513 296.051 52.8541 296.051 54.7644C296.053 56.7238 294.8 58.0917 292.929 58.0917ZM292.981 52.5696C291.974 52.5696 291.33 53.5108 291.33 54.8268C291.33 56.1176 291.989 57.0588 292.966 57.0588C293.948 57.0588 294.605 56.0525 294.605 54.8002C294.606 53.5241 293.962 52.5696 292.981 52.5696ZM301.546 57.9495L301.444 57.2276H301.407C300.982 57.8085 300.361 58.0917 299.574 58.0917C298.45 58.0917 297.652 57.3047 297.652 56.2466C297.652 54.6992 298.994 53.899 301.317 53.899V53.7833C301.317 52.9578 300.879 52.5444 300.015 52.5444C299.397 52.5444 298.854 52.6999 298.377 53.0096L298.094 52.0937C298.673 51.7321 299.397 51.5513 300.246 51.5513C301.885 51.5513 302.712 52.4154 302.712 54.1449V56.4539C302.712 57.0867 302.74 57.5772 302.802 57.9508L301.546 57.9495ZM301.354 54.8268C299.806 54.8268 299.03 55.2017 299.03 56.091C299.03 56.7491 299.43 57.0708 299.986 57.0708C300.695 57.0708 301.354 56.5297 301.354 55.7946V54.8268ZM309.478 57.9495L309.413 56.9431H309.375C308.975 57.7035 308.302 58.0917 307.362 58.0917C305.85 58.0917 304.73 56.7624 304.73 54.892C304.73 52.9312 305.891 51.55 307.476 51.55C308.315 51.55 308.909 51.8332 309.244 52.4021H309.272V48.8036H310.667V56.2599C310.667 56.866 310.682 57.4337 310.719 57.9495H309.478ZM309.272 54.2605C309.272 53.3832 308.691 52.6347 307.804 52.6347C306.771 52.6347 306.14 53.5507 306.14 54.8401C306.14 56.1043 306.795 56.9697 307.776 56.9697C308.653 56.9697 309.272 56.208 309.272 55.3054V54.2605ZM319.511 58.0917C317.68 58.0917 316.493 56.7238 316.493 54.8667C316.493 52.9312 317.705 51.5513 319.615 51.5513C321.422 51.5513 322.634 52.8541 322.634 54.7644C322.636 56.7238 321.385 58.0917 319.511 58.0917ZM319.563 52.5696C318.558 52.5696 317.913 53.5108 317.913 54.8268C317.913 56.1176 318.571 57.0588 319.55 57.0588C320.531 57.0588 321.188 56.0525 321.188 54.8002C321.19 53.5241 320.546 52.5696 319.563 52.5696ZM330.129 57.9495H328.734V54.3496C328.734 53.2409 328.308 52.6853 327.469 52.6853C326.643 52.6853 326.077 53.3951 326.077 54.2207V57.9495H324.682V53.4722C324.682 52.9179 324.669 52.3237 324.63 51.679H325.856L325.921 52.6467H325.96C326.334 51.9767 327.096 51.55 327.947 51.55C329.263 51.55 330.129 52.5563 330.129 54.1941V57.9495ZM339.504 52.7251H337.971V55.7693C337.971 56.5443 338.24 56.9312 338.782 56.9312C339.028 56.9312 339.234 56.9046 339.401 56.866L339.439 57.9242C339.169 58.0279 338.808 58.0797 338.358 58.0797C337.26 58.0797 336.603 57.4735 336.603 55.8863V52.7251H335.688V51.6803H336.603V50.5317L337.971 50.1183V51.679H339.504V52.7251ZM346.881 57.9495H345.489V54.3762C345.489 53.2542 345.065 52.6866 344.225 52.6866C343.503 52.6866 342.83 53.1771 342.83 54.1701V57.9495H341.438V48.8036H342.83V52.5696H342.858C343.297 51.8863 343.932 51.55 344.743 51.55C346.07 51.55 346.881 52.5816 346.881 54.2207V57.9495ZM354.439 55.1499H350.258C350.284 56.337 351.07 57.007 352.233 57.007C352.852 57.007 353.421 56.9033 353.923 56.7105L354.14 57.6783C353.547 57.9362 352.849 58.0651 352.037 58.0651C350.075 58.0651 348.915 56.8262 348.915 54.9053C348.915 52.983 350.103 51.538 351.88 51.538C353.482 51.538 354.487 52.7251 354.487 54.5184C354.496 54.7301 354.48 54.942 354.439 55.1499ZM353.162 54.1568C353.162 53.1891 352.674 52.5058 351.783 52.5058C350.982 52.5058 350.349 53.2024 350.259 54.1568H353.162Z" fill="white"/>
<g filter="url(#filter1_d_1029_31631)">
<rect x="388.292" y="41.4214" width="177.5" height="50.5" rx="5.25" stroke="#989898" stroke-width="1.5" shape-rendering="crispEdges"/>
</g>
<path d="M441.702 59.6714V55.9634C441.702 54.7514 441.678 53.8634 441.618 53.4434L444.138 59.6714H445.242L447.774 53.4194C447.714 54.0314 447.702 54.6194 447.702 56.2394V59.6714H448.854V50.9954H447.678L444.69 58.2914L441.702 50.9954H440.55V59.6714H441.702ZM452.098 59.8154C453.046 59.8154 453.85 59.3954 454.15 58.7234L454.27 59.6714H455.23V55.9874C455.23 54.4034 454.246 53.6354 452.794 53.6354C451.282 53.6354 450.274 54.4394 450.274 55.6634H451.258C451.258 54.9554 451.798 54.5354 452.746 54.5354C453.538 54.5354 454.126 54.8834 454.126 55.8674V56.0354L452.278 56.1794C450.898 56.2874 450.094 56.9594 450.094 58.0394C450.094 59.1074 450.838 59.8154 452.098 59.8154ZM452.422 58.9394C451.69 58.9394 451.234 58.6274 451.234 58.0034C451.234 57.4274 451.642 57.0434 452.638 56.9474L454.138 56.8274V57.1394C454.138 58.2434 453.49 58.9394 452.422 58.9394ZM457.62 59.6714V56.5634C457.62 55.4234 458.232 54.6674 459.288 54.6674C460.152 54.6674 460.704 55.1474 460.704 56.3354V59.6714H461.832V56.0834C461.832 54.5834 461.124 53.6354 459.576 53.6354C458.748 53.6354 458.004 54.0314 457.632 54.7034L457.512 53.8034H456.492V59.6714H457.62ZM464.811 59.8154C465.759 59.8154 466.563 59.3954 466.863 58.7234L466.983 59.6714H467.943V55.9874C467.943 54.4034 466.959 53.6354 465.507 53.6354C463.995 53.6354 462.987 54.4394 462.987 55.6634H463.971C463.971 54.9554 464.511 54.5354 465.459 54.5354C466.251 54.5354 466.839 54.8834 466.839 55.8674V56.0354L464.991 56.1794C463.611 56.2874 462.807 56.9594 462.807 58.0394C462.807 59.1074 463.551 59.8154 464.811 59.8154ZM465.135 58.9394C464.403 58.9394 463.947 58.6274 463.947 58.0034C463.947 57.4274 464.355 57.0434 465.351 56.9474L466.851 56.8274V57.1394C466.851 58.2434 466.203 58.9394 465.135 58.9394ZM468.833 56.5874C468.833 58.2314 469.889 59.5154 471.557 59.5154C472.481 59.5154 473.249 59.1074 473.633 58.4234V59.5994C473.633 60.7154 472.913 61.4354 471.809 61.4354C470.825 61.4354 470.177 60.9314 470.033 60.0674H468.905C469.121 61.5554 470.213 62.4554 471.809 62.4554C473.609 62.4554 474.749 61.2794 474.749 59.4314V53.8034H473.741L473.657 54.7994C473.285 54.0674 472.553 53.6354 471.605 53.6354C469.901 53.6354 468.833 54.9314 468.833 56.5874ZM469.961 56.5634C469.961 55.4834 470.633 54.6194 471.761 54.6194C472.913 54.6194 473.585 55.4354 473.585 56.5634C473.585 57.7154 472.889 58.5314 471.749 58.5314C470.645 58.5314 469.961 57.6674 469.961 56.5634ZM478.609 59.8154C480.061 59.8154 481.045 59.1074 481.333 57.8474H480.277C480.085 58.5194 479.509 58.8794 478.633 58.8794C477.517 58.8794 476.869 58.1954 476.785 56.9594L481.321 56.9474V56.5274C481.321 54.7874 480.229 53.6354 478.561 53.6354C476.857 53.6354 475.693 54.9074 475.693 56.7434C475.693 58.5674 476.881 59.8154 478.609 59.8154ZM478.561 54.5834C479.557 54.5834 480.193 55.2314 480.193 56.2034H476.809C476.953 55.1714 477.577 54.5834 478.561 54.5834ZM484.878 56.7314C484.878 58.5434 486.174 59.8154 487.938 59.8154C489.69 59.8154 490.986 58.5434 490.986 56.7314C490.986 54.9194 489.69 53.6474 487.938 53.6474C486.174 53.6474 484.878 54.9194 484.878 56.7314ZM486.018 56.7314C486.018 55.5074 486.798 54.6554 487.938 54.6554C489.066 54.6554 489.858 55.5074 489.858 56.7314C489.858 57.9554 489.066 58.8074 487.938 58.8074C486.798 58.8074 486.018 57.9554 486.018 56.7314ZM493.063 59.6714V56.5634C493.063 55.4234 493.675 54.6674 494.731 54.6674C495.595 54.6674 496.147 55.1474 496.147 56.3354V59.6714H497.275V56.0834C497.275 54.5834 496.567 53.6354 495.019 53.6354C494.191 53.6354 493.447 54.0314 493.075 54.7034L492.955 53.8034H491.935V59.6714H493.063ZM503.174 59.6714V54.7514H504.326V53.8034H503.174V51.9674H502.046V53.8034H500.894V54.7514H502.046V59.6714H503.174ZM506.166 59.6594V56.4674C506.166 55.4594 506.754 54.6674 507.846 54.6674C508.686 54.6674 509.25 55.1474 509.25 56.3354V59.6714H510.378V56.0834C510.378 54.5834 509.658 53.6354 508.158 53.6354C507.246 53.6354 506.538 54.0674 506.166 54.7034V50.8394H505.038V59.6594H506.166ZM514.173 59.8154C515.625 59.8154 516.609 59.1074 516.897 57.8474H515.841C515.649 58.5194 515.073 58.8794 514.197 58.8794C513.081 58.8794 512.433 58.1954 512.349 56.9594L516.885 56.9474V56.5274C516.885 54.7874 515.793 53.6354 514.125 53.6354C512.421 53.6354 511.257 54.9074 511.257 56.7434C511.257 58.5674 512.445 59.8154 514.173 59.8154ZM514.125 54.5834C515.121 54.5834 515.757 55.2314 515.757 56.2034H512.373C512.517 55.1714 513.141 54.5834 514.125 54.5834Z" fill="white"/>
<path d="M446.11 81.6714C450.774 81.6714 453.986 78.3934 453.986 73.6634C453.986 68.8674 450.708 65.5894 445.956 65.5894H440.324V81.6714H446.11ZM445.692 68.1854C449.014 68.1854 451.016 70.2534 451.016 73.6634C451.016 77.0074 449.058 79.0754 445.846 79.0754H443.14V68.1854H445.692ZM459.147 81.9574C460.841 81.9574 462.315 81.1874 462.777 80.0654L462.975 81.6714H465.329V75.0714C465.329 72.0574 463.525 70.4734 460.599 70.4734C457.651 70.4734 455.715 72.0134 455.715 74.3674H458.003C458.003 73.2234 458.883 72.5634 460.467 72.5634C461.831 72.5634 462.711 73.1574 462.711 74.6314V74.8734L459.455 75.1154C456.881 75.3134 455.429 76.5674 455.429 78.5694C455.429 80.6154 456.837 81.9574 459.147 81.9574ZM460.027 79.9334C458.817 79.9334 458.157 79.4494 458.157 78.4594C458.157 77.5794 458.795 77.0294 460.467 76.8754L462.733 76.6994V77.2714C462.733 78.9434 461.677 79.9334 460.027 79.9334ZM466.83 78.3714C466.83 80.5054 468.546 81.9574 471.252 81.9574C473.936 81.9574 475.806 80.5934 475.806 78.3934C475.806 76.7214 474.882 75.8854 473.056 75.4674L471.098 75.0054C470.174 74.7854 469.69 74.3894 469.69 73.7734C469.69 72.9594 470.306 72.4754 471.362 72.4754C472.396 72.4754 473.012 73.0694 473.034 73.9934H475.586C475.564 71.8814 473.914 70.4734 471.472 70.4734C468.964 70.4734 467.16 71.7494 467.16 73.8834C467.16 75.6214 468.106 76.5454 470.064 76.9854L472.022 77.4474C472.99 77.6674 473.276 78.0634 473.276 78.6134C473.276 79.4054 472.594 79.9114 471.34 79.9114C470.108 79.9114 469.404 79.3174 469.382 78.3714H466.83ZM480.233 81.6714V75.7314C480.233 74.1034 481.223 72.9154 482.917 72.9154C484.281 72.9154 485.183 73.7954 485.183 75.6214V81.6714H487.867V74.9834C487.867 72.1674 486.459 70.4734 483.775 70.4734C482.213 70.4734 480.937 71.1554 480.255 72.2114V65.3034H477.549V81.6714H480.233ZM492.691 81.6714L492.867 79.9774C493.505 81.2314 494.891 81.9574 496.519 81.9574C499.643 81.9574 501.689 79.6474 501.689 76.3034C501.689 72.8714 499.797 70.4514 496.695 70.4514C495.045 70.4514 493.593 71.1774 492.889 72.3874V65.3034H490.205V81.6714H492.691ZM492.911 76.1934C492.911 74.2354 494.121 72.8714 495.969 72.8714C497.861 72.8714 498.983 74.2574 498.983 76.1934C498.983 78.1294 497.861 79.4934 495.969 79.4934C494.121 79.4934 492.911 78.1514 492.911 76.1934ZM502.888 76.2154C502.888 79.6034 505.33 81.9354 508.696 81.9354C512.062 81.9354 514.504 79.6034 514.504 76.2154C514.504 72.8274 512.062 70.4954 508.696 70.4954C505.33 70.4954 502.888 72.8274 502.888 76.2154ZM505.572 76.2154C505.572 74.2354 506.848 72.8934 508.696 72.8934C510.544 72.8934 511.82 74.2354 511.82 76.2154C511.82 78.1954 510.544 79.5374 508.696 79.5374C506.848 79.5374 505.572 78.1954 505.572 76.2154ZM519.565 81.9574C521.259 81.9574 522.733 81.1874 523.195 80.0654L523.393 81.6714H525.747V75.0714C525.747 72.0574 523.943 70.4734 521.017 70.4734C518.069 70.4734 516.133 72.0134 516.133 74.3674H518.421C518.421 73.2234 519.301 72.5634 520.885 72.5634C522.249 72.5634 523.129 73.1574 523.129 74.6314V74.8734L519.873 75.1154C517.299 75.3134 515.847 76.5674 515.847 78.5694C515.847 80.6154 517.255 81.9574 519.565 81.9574ZM520.445 79.9334C519.235 79.9334 518.575 79.4494 518.575 78.4594C518.575 77.5794 519.213 77.0294 520.885 76.8754L523.151 76.6994V77.2714C523.151 78.9434 522.095 79.9334 520.445 79.9334ZM534.904 70.7594C534.464 70.6494 534.09 70.6054 533.716 70.6054C532.264 70.6054 531.23 71.3314 530.768 72.4094L530.614 70.8254H528.084V81.6714H530.768V76.3914C530.768 74.2794 531.978 73.2454 533.914 73.2454H534.904V70.7594ZM540.521 81.9574C542.171 81.9574 543.579 81.2314 544.239 79.9774L544.415 81.6714H546.879V65.3034H544.217V72.1894C543.535 71.1114 542.193 70.4734 540.675 70.4734C537.397 70.4734 535.417 72.8934 535.417 76.2814C535.417 79.6474 537.375 81.9574 540.521 81.9574ZM541.115 79.4934C539.245 79.4934 538.101 78.1294 538.101 76.1934C538.101 74.2574 539.245 72.8714 541.115 72.8714C542.985 72.8714 544.195 74.2354 544.195 76.1934C544.195 78.1514 542.985 79.4934 541.115 79.4934Z" fill="white"/>
<path d="M420.313 83.0157V74.7789L428.054 70.5116V78.6492L420.313 83.0157Z" fill="#BB6A37"/>
<path fill-rule="evenodd" clip-rule="evenodd" d="M403.542 56.8166L416.046 49.6714L428.054 56.8166V67.8322L420.115 72.298H411.283V83.0159L403.542 78.6493V56.8166ZM411.283 61.3818L415.848 58.7024L420.314 61.3818V68.0309H411.283V61.3818Z" fill="#BB6A37"/>
<defs>
<filter id="filter0_d_1029_31631" x="152.504" y="1.27568" width="261.038" height="134.791" filterUnits="userSpaceOnUse" color-interpolation-filters="sRGB">
<feFlood flood-opacity="0" result="BackgroundImageFix"/>
<feColorMatrix in="SourceAlpha" type="matrix" values="0 0 0 0 0 0 0 0 0 0 0 0 0 0 0 0 0 0 127 0" result="hardAlpha"/>
<feOffset dy="2"/>
<feGaussianBlur stdDeviation="21"/>
<feComposite in2="hardAlpha" operator="out"/>
<feColorMatrix type="matrix" values="0 0 0 0 0.733333 0 0 0 0 0.415686 0 0 0 0 0.215686 0 0 0 0.08 0"/>
<feBlend mode="normal" in2="BackgroundImageFix" result="effect1_dropShadow_1029_31631"/>
<feBlend mode="normal" in="SourceGraphic" in2="effect1_dropShadow_1029_31631" result="shape"/>
</filter>
<filter id="filter1_d_1029_31631" x="345.542" y="0.671402" width="263" height="136" filterUnits="userSpaceOnUse" color-interpolation-filters="sRGB">
<feFlood flood-opacity="0" result="BackgroundImageFix"/>
<feColorMatrix in="SourceAlpha" type="matrix" values="0 0 0 0 0 0 0 0 0 0 0 0 0 0 0 0 0 0 127 0" result="hardAlpha"/>
<feOffset dy="2"/>
<feGaussianBlur stdDeviation="21"/>
<feComposite in2="hardAlpha" operator="out"/>
<feColorMatrix type="matrix" values="0 0 0 0 0.733333 0 0 0 0 0.415686 0 0 0 0 0.215686 0 0 0 0.08 0"/>
<feBlend mode="normal" in2="BackgroundImageFix" result="effect1_dropShadow_1029_31631"/>
<feBlend mode="normal" in="SourceGraphic" in2="effect1_dropShadow_1029_31631" result="shape"/>
</filter>
<linearGradient id="paint0_linear_1029_31631" x1="23.6555" y1="51.7175" x2="9.53751" y2="65.8583" gradientUnits="userSpaceOnUse">
<stop stop-color="#00A0FF"/>
<stop offset="0.00657" stop-color="#00A1FF"/>
<stop offset="0.2601" stop-color="#00BEFF"/>
<stop offset="0.5122" stop-color="#00D2FF"/>
<stop offset="0.7604" stop-color="#00DFFF"/>
<stop offset="1" stop-color="#00E3FF"/>
</linearGradient>
<linearGradient id="paint1_linear_1029_31631" x1="44.7376" y1="66.5768" x2="12.743" y2="66.5768" gradientUnits="userSpaceOnUse">
<stop stop-color="#FFE000"/>
<stop offset="0.4087" stop-color="#FFBD00"/>
<stop offset="0.7754" stop-color="#FFA500"/>
<stop offset="1" stop-color="#FF9C00"/>
</linearGradient>
<linearGradient id="paint2_linear_1029_31631" x1="32.8399" y1="71.8734" x2="8.9159" y2="95.6609" gradientUnits="userSpaceOnUse">
<stop stop-color="#FF3A44"/>
<stop offset="1" stop-color="#C31162"/>
</linearGradient>
<linearGradient id="paint3_linear_1029_31631" x1="9.6724" y1="47.8318" x2="20.3348" y2="58.4497" gradientUnits="userSpaceOnUse">
<stop stop-color="#32A071"/>
<stop offset="0.0685" stop-color="#2DA771"/>
<stop offset="0.4762" stop-color="#15CF74"/>
<stop offset="0.8009" stop-color="#06E775"/>
<stop offset="1" stop-color="#00F076"/>
</linearGradient>
<linearGradient id="paint4_linear_1029_31631" x1="32.8273" y1="75.6711" x2="13.6677" y2="94.8617" gradientUnits="userSpaceOnUse">
<stop stop-color="#CC2E36"/>
<stop offset="1" stop-color="#9C0E4E"/>
</linearGradient>
<linearGradient id="paint5_linear_1029_31631" x1="15.3685" y1="51.72" x2="2.93075" y2="64.178" gradientUnits="userSpaceOnUse">
<stop stop-color="#008DE0"/>
<stop offset="0.00657" stop-color="#008DE0"/>
<stop offset="0.2601" stop-color="#00A7E0"/>
<stop offset="0.5122" stop-color="#00B8E0"/>
<stop offset="0.7604" stop-color="#00C4E0"/>
<stop offset="1" stop-color="#00C7E0"/>
</linearGradient>
<linearGradient id="paint6_linear_1029_31631" x1="44.7373" y1="66.6726" x2="12.7427" y2="66.6726" gradientUnits="userSpaceOnUse">
<stop stop-color="#E0C500"/>
<stop offset="0.4087" stop-color="#E0A600"/>
<stop offset="0.7754" stop-color="#E09100"/>
<stop offset="1" stop-color="#E08900"/>
</linearGradient>
<linearGradient id="paint7_linear_1029_31631" x1="44.7374" y1="66.6741" x2="12.7429" y2="66.6741" gradientUnits="userSpaceOnUse">
<stop stop-color="#FFE840"/>
<stop offset="0.4087" stop-color="#FFCE40"/>
<stop offset="0.7754" stop-color="#FFBC40"/>
<stop offset="1" stop-color="#FFB540"/>
</linearGradient>
<linearGradient id="paint8_linear_1029_31631" x1="15.355" y1="51.7401" x2="3.37525" y2="63.2193" gradientUnits="userSpaceOnUse">
<stop stop-color="#40B8FF"/>
<stop offset="0.00657" stop-color="#40B9FF"/>
<stop offset="0.2601" stop-color="#40CEFF"/>
<stop offset="0.5122" stop-color="#40DDFF"/>
<stop offset="0.7604" stop-color="#40E7FF"/>
<stop offset="1" stop-color="#40EAFF"/>
</linearGradient>
<linearGradient id="paint9_linear_1029_31631" x1="9.64855" y1="51.3001" x2="18.2041" y2="59.8696" gradientUnits="userSpaceOnUse">
<stop stop-color="#65B895"/>
<stop offset="0.0685" stop-color="#62BD95"/>
<stop offset="0.4762" stop-color="#50DB97"/>
<stop offset="0.8009" stop-color="#44ED98"/>
<stop offset="1" stop-color="#40F498"/>
</linearGradient>
</defs>
</svg>
