<svg width="30" height="30" viewBox="0 0 30 30" fill="none" xmlns="http://www.w3.org/2000/svg">
<circle cx="15" cy="15" r="14.25" transform="matrix(-1 0 0 1 30 0)" fill="white" stroke="black" stroke-width="1.5"/>
<path d="M15 10C12.2386 10 10 12.2386 10 15C10 17.7614 12.2386 20 15 20C17.7614 20 20 17.7614 20 15C20 12.2386 17.7614 10 15 10Z" fill="black"/>
<path d="M15 21.9751C14.5029 21.9751 14.1 22.378 14.1 22.8751V23.1001C14.1 23.5972 14.5029 24.0001 15 24.0001C15.497 24.0001 15.9 23.5972 15.9 23.1001V22.8751C15.9 22.378 15.497 21.9751 15 21.9751Z" fill="black"/>
<path d="M15 6C14.5029 6 14.1 6.40294 14.1 6.9V7.125C14.1 7.62206 14.5029 8.025 15 8.025C15.497 8.025 15.9 7.62206 15.9 7.125V6.9C15.9 6.40294 15.497 6 15 6Z" fill="black"/>
<path d="M6 15.0001C6 14.503 6.40294 14.1001 6.9 14.1001H7.125C7.62206 14.1001 8.025 14.503 8.025 15.0001C8.025 15.4972 7.62206 15.9001 7.125 15.9001H6.9C6.40294 15.9001 6 15.4972 6 15.0001Z" fill="black"/>
<path d="M21.975 15.0001C21.975 14.503 22.3779 14.1001 22.875 14.1001H23.1C23.597 14.1001 24 14.503 24 15.0001C24 15.4972 23.597 15.9001 23.1 15.9001H22.875C22.3779 15.9001 21.975 15.4972 21.975 15.0001Z" fill="black"/>
<path d="M8.63604 8.63615C8.98751 8.28468 9.55736 8.28468 9.90883 8.63615L10.0679 8.79525C10.4194 9.14672 10.4194 9.71657 10.0679 10.068C9.71645 10.4195 9.1466 10.4195 8.79513 10.068L8.63603 9.90895C8.28456 9.55747 8.28456 8.98762 8.63604 8.63615Z" fill="black"/>
<path d="M19.9321 19.932C20.2836 19.5806 20.8534 19.5806 21.2049 19.932L21.364 20.0912C21.7155 20.4426 21.7155 21.0125 21.364 21.3639C21.0125 21.7154 20.4427 21.7154 20.0912 21.3639L19.9321 21.2048C19.5806 20.8534 19.5806 20.2835 19.9321 19.932Z" fill="black"/>
<path d="M10.0679 19.932C9.71645 19.5806 9.1466 19.5806 8.79514 19.932L8.63602 20.0912C8.28456 20.4426 8.28456 21.0125 8.63603 21.3639C8.9875 21.7154 9.55734 21.7154 9.90881 21.3639L10.0679 21.2048C10.4194 20.8534 10.4194 20.2835 10.0679 19.932Z" fill="black"/>
<path d="M21.364 8.63615C21.0125 8.28468 20.4427 8.28468 20.0912 8.63615L19.9321 8.79526C19.5806 9.14673 19.5806 9.71657 19.9321 10.068C20.2836 10.4195 20.8534 10.4195 21.2049 10.068L21.364 9.90893C21.7155 9.55747 21.7155 8.98762 21.364 8.63615Z" fill="black"/>
</svg>
