<svg width="49" height="49" viewBox="0 0 49 49" fill="none" xmlns="http://www.w3.org/2000/svg">
<g clip-path="url(#clip0_1029_31354)">
<path d="M41.8213 41.8216C51.3876 32.2553 51.3876 16.7452 41.8213 7.17893C32.255 -2.38737 16.745 -2.38737 7.17869 7.17893C-2.3876 16.7452 -2.3876 32.2553 7.17869 41.8216C16.745 51.3879 32.255 51.3879 41.8213 41.8216Z" fill="#011D41"/>
<path d="M4.32975 36.1456C-2.102 25.0058 1.71489 10.7614 12.8547 4.32988C23.9945 -2.10165 38.2396 1.71502 44.6705 12.8548C51.1014 23.9947 47.2853 38.2397 36.1455 44.6706C25.0057 51.1015 10.7613 47.2855 4.32975 36.1456Z" fill="url(#paint0_linear_1029_31354)"/>
<mask id="mask0_1029_31354" style="mask-type:luminance" maskUnits="userSpaceOnUse" x="4" y="4" width="41" height="41">
<path d="M24.5001 4.25276C35.6828 4.25276 44.7476 13.3178 44.7476 24.5002C44.7476 35.6827 35.6823 44.7477 24.5001 44.7477C13.3179 44.7477 4.25262 35.6827 4.25262 24.5002C4.25262 13.3178 13.3177 4.25276 24.5001 4.25276Z" fill="white"/>
</mask>
<g mask="url(#mask0_1029_31354)">
<path d="M24.5001 24.5002L44.431 -0.958107L45.3545 -0.20724L24.5001 24.5002Z" fill="#3AAE56"/>
<path d="M24.5001 24.5002L45.2005 -0.332344L45.9545 0.312052L24.5001 24.5002Z" fill="#3AAE56"/>
<path d="M24.5001 24.5002L45.8037 0.183083L46.5415 0.845902L24.5001 24.5002Z" fill="#3BAF57"/>
<path d="M24.5001 24.5002L46.3939 0.713303L47.1154 1.3939L24.5001 24.5002Z" fill="#3BAF57"/>
<path d="M24.5001 24.5002L46.9713 1.25765L47.6756 1.95582L24.5001 24.5002Z" fill="#3CAF57"/>
<path d="M24.5001 24.5002L47.5347 1.81614L48.2219 2.53144L24.5001 24.5002Z" fill="#3CAF57"/>
<path d="M24.5001 24.5002L48.0846 2.38834L48.7541 3.12014L24.5001 24.5002Z" fill="#3DB057"/>
<path d="M24.5001 24.5002L48.6202 2.97382L49.2714 3.72191L24.5001 24.5002Z" fill="#3DB058"/>
<path d="M24.5001 24.5002L49.1412 3.57216L49.7738 4.33609L24.5001 24.5002Z" fill="#3EB058"/>
<path d="M24.5001 24.5002L49.6474 4.18335L50.2612 4.96228L24.5001 24.5002Z" fill="#3EB058"/>
<path d="M24.5001 24.5002L50.1384 4.80653L50.7329 5.60046L24.5001 24.5002Z" fill="#3FB158"/>
<path d="M24.5001 24.5002L50.614 5.44173L51.1888 6.25001L24.5001 24.5002Z" fill="#3FB158"/>
<path d="M24.5001 24.5002L51.0737 6.08826L51.6286 6.91046L24.5001 24.5002Z" fill="#40B159"/>
<path d="M24.5001 24.5002L51.5176 6.74594L52.0521 7.58143L24.5001 24.5002Z" fill="#40B159"/>
<path d="M24.5001 24.5002L51.9452 7.41433L52.4591 8.26267L24.5001 24.5002Z" fill="#41B159"/>
<path d="M24.5001 24.5002L52.3563 8.093L52.849 8.95377L24.5001 24.5002Z" fill="#41B259"/>
<path d="M24.5001 24.5002L52.7505 8.78152L53.2222 9.65407L24.5001 24.5002Z" fill="#42B259"/>
<path d="M24.5001 24.5002L53.1277 9.47969L53.5778 10.3634L24.5001 24.5002Z" fill="#42B25A"/>
<path d="M24.5001 24.5002L53.4878 10.1866L53.9159 11.0815L24.5001 24.5002Z" fill="#43B25A"/>
<path d="M24.5001 24.5002L53.8304 10.9024L54.2364 11.8073L24.5001 24.5002Z" fill="#43B35A"/>
<path d="M24.5001 24.5002L54.1552 11.6263L54.5388 12.5408L24.5001 24.5002Z" fill="#44B35A"/>
<path d="M24.5001 24.5002L54.4622 12.3581L54.8233 13.2818L24.5001 24.5002Z" fill="#44B35A"/>
<path d="M24.5001 24.5002L54.7511 13.0969L55.0896 14.0292L24.5001 24.5002Z" fill="#45B35B"/>
<path d="M24.5001 24.5002L55.0219 13.8427L55.3373 14.7831L24.5001 24.5002Z" fill="#45B35B"/>
<path d="M24.5001 24.5002L55.2743 14.595L55.5665 15.5428L24.5001 24.5002Z" fill="#46B45B"/>
<path d="M24.5001 24.5002L55.508 15.3532L55.7771 16.308L24.5001 24.5002Z" fill="#46B45B"/>
<path d="M24.5001 24.5002L55.7233 16.1169L55.9686 17.0779L24.5001 24.5002Z" fill="#47B45B"/>
<path d="M24.5001 24.5002L55.9195 16.8857L56.1413 17.8526L24.5001 24.5002Z" fill="#47B45B"/>
<path d="M24.5001 24.5002L56.0969 17.6591L56.2949 18.6311L24.5001 24.5002Z" fill="#48B55C"/>
<path d="M24.5001 24.5002L56.2552 18.4365L56.4294 19.413L24.5001 24.5002Z" fill="#48B55C"/>
<path d="M24.5001 24.5002L56.3945 19.2178L56.5447 20.1981L24.5001 24.5002Z" fill="#49B55C"/>
<path d="M24.5001 24.5002L56.5147 20.0021L56.6406 20.9858L24.5001 24.5002Z" fill="#49B55C"/>
<path d="M24.5001 24.5002L56.6154 20.789L56.7171 21.7757L24.5001 24.5002Z" fill="#4AB65C"/>
<path d="M24.5001 24.5002L56.6968 21.5784L56.7743 22.5671L24.5001 24.5002Z" fill="#4AB65D"/>
<path d="M24.5001 24.5002L56.7587 22.3693L56.812 23.3597L24.5001 24.5002Z" fill="#4BB65D"/>
<path d="M24.5001 24.5002L56.8013 23.1618L56.8302 24.153L24.5001 24.5002Z" fill="#4BB65D"/>
<path d="M24.5001 24.5002L56.8244 23.9548L56.8289 24.9467L24.5001 24.5002Z" fill="#4CB65D"/>
<path d="M24.5001 24.5002L56.8281 24.7483L56.8084 25.74L24.5001 24.5002Z" fill="#4CB75D"/>
<path d="M24.5001 24.5002L56.8122 25.5416L56.7681 26.5324L24.5001 24.5002Z" fill="#4DB75E"/>
<path d="M24.5001 24.5002L56.7769 26.3342L56.7085 27.3238L24.5001 24.5002Z" fill="#4DB75E"/>
<path d="M24.5001 24.5002L56.7223 27.1258L56.6295 28.1132L24.5001 24.5002Z" fill="#4EB75E"/>
<path d="M24.5001 24.5002L56.6481 27.9157L56.5312 28.9007L24.5001 24.5002Z" fill="#4EB85E"/>
<path d="M24.5001 24.5002L56.5545 28.7036L56.4136 29.6854L24.5001 24.5002Z" fill="#4FB85E"/>
<path d="M24.5001 24.5002L56.4418 29.4892L56.2767 30.4671L24.5001 24.5002Z" fill="#4FB85F"/>
<path d="M24.5001 24.5002L56.3099 30.2715L56.1207 31.2452L24.5001 24.5002Z" fill="#50B85F"/>
<path d="M24.5001 24.5002L56.1586 31.0502L55.9457 32.0192L24.5001 24.5002Z" fill="#50B85F"/>
<path d="M24.5001 24.5002L55.9883 31.8253L55.7516 32.7885L24.5001 24.5002Z" fill="#51B95F"/>
<path d="M24.5001 24.5002L55.7989 32.5959L55.5389 33.5531L24.5001 24.5002Z" fill="#51B95F"/>
<path d="M24.5001 24.5002L55.5909 33.3615L55.3073 34.3121L24.5001 24.5002Z" fill="#52B960"/>
<path d="M24.5001 24.5002L55.3641 34.1218L55.0573 35.0651L24.5001 24.5002Z" fill="#52B960"/>
<path d="M24.5001 24.5002L55.1185 34.8763L54.7888 35.8119L24.5001 24.5002Z" fill="#53BA60"/>
<path d="M24.5001 24.5002L54.8548 35.6246L54.502 36.5518L24.5001 24.5002Z" fill="#53BA60"/>
<path d="M24.5001 24.5002L54.5727 36.3663L54.1972 37.2845L24.5001 24.5002Z" fill="#54BA60"/>
<path d="M24.5001 24.5002L54.2723 37.1007L53.8745 38.0094L24.5001 24.5002Z" fill="#54BA61"/>
<path d="M24.5001 24.5002L53.9542 37.8275L53.5341 38.7262L24.5001 24.5002Z" fill="#55BB61"/>
<path d="M24.5001 24.5002L53.6181 38.5465L53.1764 39.4345L24.5001 24.5002Z" fill="#55BB61"/>
<path d="M24.5001 24.5002L53.2646 39.2569L52.8012 40.1337L24.5001 24.5002Z" fill="#56BB61"/>
<path d="M24.5001 24.5002L52.8938 39.9582L52.409 40.8235L24.5001 24.5002Z" fill="#56BB61"/>
<path d="M24.5001 24.5002L52.506 40.6504L52 41.5035L24.5001 24.5002Z" fill="#57BB62"/>
<path d="M24.5001 24.5002L52.1012 41.3329L51.5744 42.1734L24.5001 24.5002Z" fill="#57BC62"/>
<path d="M24.5001 24.5002L51.6798 42.0052L51.1326 42.8323L24.5001 24.5002Z" fill="#58BC62"/>
<path d="M24.5001 24.5002L51.2421 42.6669L50.6746 43.4804L24.5001 24.5002Z" fill="#58BC62"/>
<path d="M24.5001 24.5002L50.7882 43.3178L50.201 44.117L24.5001 24.5002Z" fill="#59BC62"/>
<path d="M24.5001 24.5002L50.3184 43.9572L49.7119 44.7419L24.5001 24.5002Z" fill="#59BD63"/>
<path d="M24.5001 24.5002L49.8331 44.5849L49.2074 45.3546L24.5001 24.5002Z" fill="#5ABD63"/>
<path d="M24.5001 24.5002L49.3327 45.2006L48.6883 45.9547L24.5001 24.5002Z" fill="#5ABD63"/>
<path d="M24.5001 24.5002L48.8171 45.8039L48.1544 46.5417L24.5001 24.5002Z" fill="#5BBD63"/>
<path d="M24.5001 24.5002L48.2871 46.3941L47.6064 47.1156L24.5001 24.5002Z" fill="#5BBD63"/>
<path d="M24.5001 24.5002L47.7425 46.9714L47.0443 47.6758L24.5001 24.5002Z" fill="#5CBE64"/>
<path d="M24.5001 24.5002L47.184 47.5348L46.4689 48.2221L24.5001 24.5002Z" fill="#5CBE64"/>
<path d="M24.5001 24.5002L46.612 48.0847L45.88 48.7542L24.5001 24.5002Z" fill="#5DBE64"/>
<path d="M24.5001 24.5002L46.0265 48.6203L45.2784 49.2716L24.5001 24.5002Z" fill="#5DBE64"/>
<path d="M24.5001 24.5002L45.428 49.1413L44.6643 49.7739L24.5001 24.5002Z" fill="#5EBF64"/>
<path d="M24.5001 24.5002L44.817 49.6475L44.0379 50.2613L24.5001 24.5002Z" fill="#5EBF65"/>
<path d="M24.5001 24.5002L44.1938 50.1385L43.3999 50.733L24.5001 24.5002Z" fill="#5FBF65"/>
<path d="M24.5001 24.5002L43.5586 50.6141L42.7503 51.1889L24.5001 24.5002Z" fill="#5FBF65"/>
<path d="M24.5001 24.5002L42.9121 51.0739L42.0899 51.6287L24.5001 24.5002Z" fill="#60C065"/>
<path d="M24.5001 24.5002L42.2542 51.5177L41.4187 52.0522L24.5001 24.5002Z" fill="#60C065"/>
<path d="M24.5001 24.5002L41.5858 51.9453L40.7375 52.4593L24.5001 24.5002Z" fill="#61C065"/>
<path d="M24.5001 24.5002L40.9073 52.3564L40.0466 52.8492L24.5001 24.5002Z" fill="#61C066"/>
<path d="M24.5001 24.5002L40.2186 52.7506L39.3461 53.2223L24.5001 24.5002Z" fill="#62C066"/>
<path d="M24.5001 24.5002L39.5207 53.1279L38.6368 53.578L24.5001 24.5002Z" fill="#62C166"/>
<path d="M24.5001 24.5002L38.8135 53.488L37.9189 53.916L24.5001 24.5002Z" fill="#63C166"/>
<path d="M24.5001 24.5002L38.0978 53.8305L37.1929 54.2365L24.5001 24.5002Z" fill="#63C166"/>
<path d="M24.5001 24.5002L37.3739 54.1553L36.4593 54.539L24.5001 24.5002Z" fill="#64C167"/>
<path d="M24.5001 24.5002L36.6423 54.4623L35.7185 54.8235L24.5001 24.5002Z" fill="#65C267"/>
<path d="M24.5001 24.5002L35.9034 54.7513L34.9711 55.0898L24.5001 24.5002Z" fill="#65C267"/>
<path d="M24.5001 24.5002L35.1575 55.0221L34.2172 55.3374L24.5001 24.5002Z" fill="#66C267"/>
<path d="M24.5001 24.5002L34.4053 55.2744L33.4574 55.5666L24.5001 24.5002Z" fill="#66C267"/>
<path d="M24.5001 24.5002L33.647 55.5082L32.6924 55.7772L24.5001 24.5002Z" fill="#67C268"/>
<path d="M24.5001 24.5002L32.8832 55.7234L31.9222 55.9687L24.5001 24.5002Z" fill="#67C368"/>
<path d="M24.5001 24.5002L32.1146 55.9197L31.1478 56.1414L24.5001 24.5002Z" fill="#68C368"/>
<path d="M24.5001 24.5002L31.3412 56.0971L30.3693 56.295L24.5001 24.5002Z" fill="#68C368"/>
<path d="M24.5001 24.5002L30.5636 56.2554L29.5871 56.4295L24.5001 24.5002Z" fill="#69C368"/>
<path d="M24.5001 24.5002L29.7825 56.3946L28.802 56.5448L24.5001 24.5002Z" fill="#69C469"/>
<path d="M24.5001 24.5002L28.9982 56.5148L28.0143 56.6408L24.5001 24.5002Z" fill="#6AC469"/>
<path d="M24.5001 24.5002L28.2112 56.6155L27.2246 56.7172L24.5001 24.5002Z" fill="#6AC469"/>
<path d="M24.5001 24.5002L27.422 56.6969L26.4331 56.7744L24.5001 24.5002Z" fill="#6BC469"/>
<path d="M24.5001 24.5002L26.631 56.7588L25.6404 56.8122L24.5001 24.5002Z" fill="#6BC569"/>
<path d="M24.5001 24.5002L25.8386 56.8014L24.8472 56.8304L24.5001 24.5002Z" fill="#6CC56A"/>
<path d="M24.5001 24.5002L25.0455 56.8246L24.0537 56.8291L24.5001 24.5002Z" fill="#6CC56A"/>
<path d="M24.5001 24.5002L24.252 56.8282L23.2604 56.8085L24.5001 24.5002Z" fill="#6DC56A"/>
<path d="M24.5001 24.5002L23.4587 56.8124L22.4679 56.7682L24.5001 24.5002Z" fill="#6DC56A"/>
<path d="M24.5001 24.5002L22.6661 56.777L21.6766 56.7087L24.5001 24.5002Z" fill="#6EC66A"/>
<path d="M24.5001 24.5002L21.8745 56.7224L20.8869 56.6296L24.5001 24.5002Z" fill="#6EC66B"/>
<path d="M24.5001 24.5002L21.0845 56.6483L20.0997 56.5313L24.5001 24.5002Z" fill="#6FC66B"/>
<path d="M24.5001 24.5002L20.2965 56.5546L19.3149 56.4137L24.5001 24.5002Z" fill="#6FC66B"/>
<path d="M24.5001 24.5002L19.5112 56.442L18.5332 56.2768L24.5001 24.5002Z" fill="#70C76B"/>
<path d="M24.5001 24.5002L18.7288 56.31L17.7552 56.1208L24.5001 24.5002Z" fill="#70C76B"/>
<path d="M24.5001 24.5002L17.9499 56.1588L16.9812 55.9458L24.5001 24.5002Z" fill="#71C76C"/>
<path d="M24.5001 24.5002L17.175 55.9884L16.2116 55.7517L24.5001 24.5002Z" fill="#71C76C"/>
<path d="M24.5001 24.5002L16.4045 55.7991L15.4473 55.539L24.5001 24.5002Z" fill="#72C76C"/>
<path d="M24.5001 24.5002L15.6388 55.5911L14.6883 55.3074L24.5001 24.5002Z" fill="#72C86C"/>
<path d="M24.5001 24.5002L14.8783 55.3642L13.9353 55.0574L24.5001 24.5002Z" fill="#73C86C"/>
<path d="M24.5001 24.5002L14.1238 55.1187L13.1885 54.789L24.5001 24.5002Z" fill="#73C86D"/>
<path d="M24.5001 24.5002L13.3755 54.855L12.4485 54.5021L24.5001 24.5002Z" fill="#74C86D"/>
<path d="M24.5001 24.5002L12.6341 54.5728L11.7159 54.1973L24.5001 24.5002Z" fill="#74C96D"/>
<path d="M24.5001 24.5002L11.8995 54.2725L10.9909 53.8747L24.5001 24.5002Z" fill="#75C96D"/>
<path d="M24.5001 24.5002L11.1726 53.9544L10.2741 53.5343L24.5001 24.5002Z" fill="#75C96D"/>
<path d="M24.5001 24.5002L10.4539 53.6182L9.56589 53.1765L24.5001 24.5002Z" fill="#76C96E"/>
<path d="M24.5001 24.5002L9.74349 53.2648L8.86665 52.8014L24.5001 24.5002Z" fill="#76CA6E"/>
<path d="M24.5001 24.5002L9.04189 52.8939L8.17684 52.4091L24.5001 24.5002Z" fill="#77CA6E"/>
<path d="M24.5001 24.5002L8.34994 52.5062L7.49667 52.0002L24.5001 24.5002Z" fill="#77CA6E"/>
<path d="M24.5001 24.5002L7.66741 52.1013L6.82699 51.5745L24.5001 24.5002Z" fill="#78CA6E"/>
<path d="M24.5001 24.5002L6.99516 51.6799L6.16782 51.1328L24.5001 24.5002Z" fill="#78CA6F"/>
<path d="M24.5001 24.5002L6.33341 51.2422L5.51978 50.6747L24.5001 24.5002Z" fill="#79CB6F"/>
<path d="M24.5001 24.5002L5.68259 50.7883L4.88309 50.2011L24.5001 24.5002Z" fill="#79CB6F"/>
<path d="M24.5001 24.5002L5.04313 50.3185L4.25841 49.712L24.5001 24.5002Z" fill="#7ACB6F"/>
<path d="M24.5001 24.5002L4.41522 49.8333L3.64572 49.2075L24.5001 24.5002Z" fill="#7ACB6F"/>
<path d="M24.5001 24.5002L3.79975 49.3328L3.04567 48.6884L24.5001 24.5002Z" fill="#7BCC6F"/>
<path d="M24.5001 24.5002L3.19649 48.8172L2.45847 48.1546L24.5001 24.5002Z" fill="#7BCC70"/>
<path d="M24.5001 24.5002L2.60607 48.2872L1.88456 47.6066L24.5001 24.5002Z" fill="#7CCC70"/>
<path d="M24.5001 24.5002L2.02895 47.7426L1.32435 47.0445L24.5001 24.5002Z" fill="#7CCC70"/>
<path d="M24.5001 24.5002L1.46531 47.1841L0.778072 46.469L24.5001 24.5002Z" fill="#7DCC70"/>
<path d="M24.5001 24.5002L0.915608 46.6121L0.246147 45.8801L24.5001 24.5002Z" fill="#7DCD70"/>
<path d="M24.5001 24.5002L0.380038 46.0267L-0.271214 45.2786L24.5001 24.5002Z" fill="#7ECD71"/>
<path d="M24.5001 24.5002L-0.140965 45.4281L-0.773792 44.6644L24.5001 24.5002Z" fill="#7ECD71"/>
<path d="M24.5001 24.5002L-0.647183 44.8171L-1.26094 44.038L24.5001 24.5002Z" fill="#7FCD71"/>
<path d="M24.5001 24.5002L-1.13819 44.1939L-1.73267 43.4L24.5001 24.5002Z" fill="#7FCE71"/>
<path d="M24.5001 24.5002L-1.61378 43.5588L-2.18855 42.7505L24.5001 24.5002Z" fill="#80CE71"/>
<path d="M24.5001 24.5002L-2.07372 42.9122L-2.62857 42.09L24.5001 24.5002Z" fill="#80CE72"/>
<path d="M24.5001 24.5002L-2.5176 42.2543L-3.0521 41.4188L24.5001 24.5002Z" fill="#81CE72"/>
<path d="M24.5001 24.5002L-2.94498 41.5859L-3.45892 40.7378L24.5001 24.5002Z" fill="#81CF72"/>
<path d="M24.5001 24.5002L-3.35609 40.9075L-3.84903 40.0467L24.5001 24.5002Z" fill="#82CF72"/>
<path d="M24.5001 24.5002L-3.75026 40.2187L-4.22199 39.3462L24.5001 24.5002Z" fill="#82CF72"/>
<path d="M24.5001 24.5002L-4.12773 39.5208L-4.57761 38.6369L24.5001 24.5002Z" fill="#83CF73"/>
<path d="M24.5001 24.5002L-4.48763 38.8136L-4.91587 37.919L24.5001 24.5002Z" fill="#83CF73"/>
<path d="M24.5001 24.5002L-4.83018 38.0979L-5.23636 37.193L24.5001 24.5002Z" fill="#84D073"/>
<path d="M24.5001 24.5002L-5.15495 37.374L-5.53885 36.4595L24.5001 24.5002Z" fill="#84D073"/>
<path d="M24.5001 24.5002L-5.46215 36.6424L-5.82334 35.7187L24.5001 24.5002Z" fill="#85D073"/>
<path d="M24.5001 24.5002L-5.75093 35.9036L-6.08941 34.9712L24.5001 24.5002Z" fill="#85D074"/>
<path d="M24.5001 24.5002L-6.02172 35.1576L-6.33727 34.2174L24.5001 24.5002Z" fill="#86D174"/>
<path d="M24.5001 24.5002L-6.27408 34.4055L-6.56628 33.4575L24.5001 24.5002Z" fill="#86D174"/>
<path d="M24.5001 24.5002L-6.50801 33.6471L-6.77687 32.6925L24.5001 24.5002Z" fill="#87D174"/>
<path d="M24.5001 24.5002L-6.7231 32.8834L-6.96839 31.9224L24.5001 24.5002Z" fill="#87D174"/>
<path d="M24.5001 24.5002L-6.91933 32.1147L-7.14127 31.1479L24.5001 24.5002Z" fill="#88D175"/>
<path d="M24.5001 24.5002L-7.09671 31.3414L-7.29487 30.3694L24.5001 24.5002Z" fill="#88D275"/>
<path d="M24.5001 24.5002L-7.25524 30.5637L-7.42919 29.5873L24.5001 24.5002Z" fill="#89D275"/>
<path d="M24.5001 24.5002L-7.39449 29.7827L-7.54445 28.8021L24.5001 24.5002Z" fill="#89D275"/>
<path d="M24.5001 24.5002L-7.51445 28.9984L-7.64042 28.0144L24.5001 24.5002Z" fill="#8AD275"/>
<path d="M24.5001 24.5002L-7.61514 28.2113L-7.7169 27.2248L24.5001 24.5002Z" fill="#8AD376"/>
<path d="M24.5001 24.5002L-7.69655 27.4221L-7.7741 26.4332L24.5001 24.5002Z" fill="#8BD376"/>
<path d="M24.5001 24.5002L-7.75867 26.6312L-7.8118 25.6406L24.5001 24.5002Z" fill="#8BD376"/>
<path d="M24.5001 24.5002L-7.80109 25.8387L-7.83001 24.8473L24.5001 24.5002Z" fill="#8CD376"/>
<path d="M24.5001 24.5002L-7.82422 25.0457L-7.82894 24.0538L24.5001 24.5002Z" fill="#8CD476"/>
<path d="M24.5001 24.5002L-7.82787 24.2522L-7.80816 23.2605L24.5001 24.5002Z" fill="#8DD477"/>
<path d="M24.5001 24.5002L-7.81223 23.4589L-7.7681 22.4681L24.5001 24.5002Z" fill="#8DD477"/>
<path d="M24.5001 24.5002L-7.77688 22.6662L-7.70833 21.6767L24.5001 24.5002Z" fill="#8ED477"/>
<path d="M24.5001 24.5002L-7.72204 21.8747L-7.62949 20.8871L24.5001 24.5002Z" fill="#8ED477"/>
<path d="M24.5001 24.5002L-7.64792 21.0846L-7.53116 20.0998L24.5001 24.5002Z" fill="#8FD577"/>
<path d="M24.5001 24.5002L-7.55452 20.2967L-7.41355 19.3151L24.5001 24.5002Z" fill="#90D578"/>
<path d="M24.5001 24.5002L-7.44162 19.5113L-7.27666 18.5334L24.5001 24.5002Z" fill="#90D578"/>
<path d="M24.5001 24.5002L-7.30965 18.729L-7.12049 17.7553L24.5001 24.5002Z" fill="#91D578"/>
<path d="M24.5001 24.5002L-7.15841 17.95L-6.94547 16.9813L24.5001 24.5002Z" fill="#91D678"/>
<path d="M24.5001 24.5002L-6.9881 17.1752L-6.75159 16.2118L24.5001 24.5002Z" fill="#92D678"/>
<path d="M24.5001 24.5002L-6.79893 16.4046L-6.53865 15.4474L24.5001 24.5002Z" fill="#92D679"/>
<path d="M24.5001 24.5002L-6.59071 15.6389L-6.30728 14.6884L24.5001 24.5002Z" fill="#93D679"/>
<path d="M24.5001 24.5002L-6.36384 14.8784L-6.05706 13.9354L24.5001 24.5002Z" fill="#93D679"/>
<path d="M24.5001 24.5002L-6.11855 14.1239L-5.78864 13.1886L24.5001 24.5002Z" fill="#94D779"/>
<path d="M24.5001 24.5002L-5.85462 13.3756L-5.502 12.4487L24.5001 24.5002Z" fill="#94D779"/>
<path d="M24.5001 24.5002L-5.57248 12.6342L-5.19716 11.716L24.5001 24.5002Z" fill="#95D779"/>
<path d="M24.5001 24.5002L-5.27214 11.8996L-4.87453 10.9911L24.5001 24.5002Z" fill="#95D77A"/>
<path d="M24.5001 24.5002L-4.95401 11.1727L-4.53412 10.2743L24.5001 24.5002Z" fill="#96D87A"/>
<path d="M24.5001 24.5002L-4.6181 10.454L-4.17615 9.56602L24.5001 24.5002Z" fill="#96D87A"/>
<path d="M24.5001 24.5002L-4.26463 9.74362L-3.80104 8.86679L24.5001 24.5002Z" fill="#97D87A"/>
<path d="M24.5001 24.5002L-3.8938 9.04203L-3.409 8.17698L24.5001 24.5002Z" fill="#97D87A"/>
<path d="M24.5001 24.5002L-3.50583 8.35008L-2.99983 7.49681L24.5001 24.5002Z" fill="#98D97B"/>
<path d="M24.5001 24.5002L-3.10116 7.66755L-2.57437 6.82713L24.5001 24.5002Z" fill="#98D97B"/>
<path d="M24.5001 24.5002L-2.67977 6.9953L-2.13242 6.16795L24.5001 24.5002Z" fill="#99D97B"/>
<path d="M24.5001 24.5002L-2.24189 6.33356L-1.67462 5.51992L24.5001 24.5002Z" fill="#99D97B"/>
<path d="M24.5001 24.5002L-1.78794 5.68273L-1.20074 4.88323L24.5001 24.5002Z" fill="#9AD97B"/>
<path d="M24.5001 24.5002L-1.31836 5.04326L-0.711668 4.25854L24.5001 24.5002Z" fill="#9ADA7C"/>
<path d="M24.5001 24.5002L-0.832916 4.41536L-0.207372 3.64586L24.5001 24.5002Z" fill="#9BDA7C"/>
<path d="M24.5001 24.5002L-0.332481 3.79989L0.311914 3.04581L24.5001 24.5002Z" fill="#9BDA7C"/>
<path d="M24.5001 24.5002L0.182949 3.19662L0.845768 2.45861L24.5001 24.5002Z" fill="#9CDA7C"/>
<path d="M24.5001 24.5002L0.713161 2.60621L1.39376 1.88469L24.5001 24.5002Z" fill="#9CDB7C"/>
<path d="M24.5001 24.5002L1.25751 2.02908L1.95568 1.32449L24.5001 24.5002Z" fill="#9DDB7D"/>
<path d="M24.5001 24.5002L1.816 1.46545L2.53131 0.778214L24.5001 24.5002Z" fill="#9DDB7D"/>
<path d="M24.5001 24.5002L2.38821 0.915745L3.12001 0.246284L24.5001 24.5002Z" fill="#9EDB7D"/>
<path d="M24.5001 24.5002L2.97369 0.380179L3.72177 -0.271072L24.5001 24.5002Z" fill="#9EDB7D"/>
<path d="M24.5001 24.5002L3.57203 -0.140824L4.33596 -0.773651L24.5001 24.5002Z" fill="#9FDC7D"/>
<path d="M24.5001 24.5002L4.18322 -0.647042L4.96215 -1.2608L24.5001 24.5002Z" fill="#9FDC7E"/>
<path d="M24.5001 24.5002L4.8064 -1.13806L5.60033 -1.73254L24.5001 24.5002Z" fill="#A0DC7E"/>
<path d="M24.5001 24.5002L5.44159 -1.61364L6.24987 -2.18841L24.5001 24.5002Z" fill="#A0DC7E"/>
<path d="M24.5001 24.5002L6.08812 -2.07358L6.91033 -2.62843L24.5001 24.5002Z" fill="#A1DD7E"/>
<path d="M24.5001 24.5002L6.7458 -2.51747L7.58129 -3.05196L24.5001 24.5002Z" fill="#A1DD7E"/>
<path d="M24.5001 24.5002L7.41419 -2.94485L8.26253 -3.45878L24.5001 24.5002Z" fill="#A2DD7F"/>
<path d="M24.5001 24.5002L8.09286 -3.35595L8.95363 -3.84888L24.5001 24.5002Z" fill="#A2DD7F"/>
<path d="M24.5001 24.5002L8.78139 -3.75013L9.65394 -4.22186L24.5001 24.5002Z" fill="#A3DE7F"/>
<path d="M24.5001 24.5002L9.47956 -4.1276L10.3632 -4.57748L24.5001 24.5002Z" fill="#A3DE7F"/>
<path d="M24.5001 24.5002L10.1865 -4.4875L11.0813 -4.91574L24.5001 24.5002Z" fill="#A4DE7F"/>
<path d="M24.5001 24.5002L10.9022 -4.83005L11.8071 -5.23622L24.5001 24.5002Z" fill="#A4DE80"/>
<path d="M24.5001 24.5002L11.6261 -5.15482L12.5407 -5.53871L24.5001 24.5002Z" fill="#A5DE80"/>
<path d="M24.5001 24.5002L12.3579 -5.46202L13.2817 -5.8232L24.5001 24.5002Z" fill="#A5DF80"/>
<path d="M24.5001 24.5002L13.0968 -5.7508L14.0291 -6.08928L24.5001 24.5002Z" fill="#A6DF80"/>
<path d="M24.5001 24.5002L13.8425 -6.02158L14.783 -6.33714L24.5001 24.5002Z" fill="#A6DF80"/>
<path d="M24.5001 24.5002L14.5949 -6.27394L15.5426 -6.56615L24.5001 24.5002Z" fill="#A7DF81"/>
<path d="M24.5001 24.5002L15.353 -6.50788L16.3078 -6.77673L24.5001 24.5002Z" fill="#A7E081"/>
<path d="M24.5001 24.5002L16.1167 -6.72296L17.0778 -6.96825L24.5001 24.5002Z" fill="#A8E081"/>
<path d="M24.5001 24.5002L16.8856 -6.91919L17.8524 -7.14113L24.5001 24.5002Z" fill="#A8E081"/>
<path d="M24.5001 24.5002L17.659 -7.09657L18.6309 -7.29473L24.5001 24.5002Z" fill="#A9E081"/>
<path d="M24.5001 24.5002L18.4364 -7.2551L19.4128 -7.42905L24.5001 24.5002Z" fill="#A9E082"/>
<path d="M24.5001 24.5002L19.2177 -7.39435L20.198 -7.54431L24.5001 24.5002Z" fill="#AAE182"/>
<path d="M24.5001 24.5002L20.002 -7.51432L20.9857 -7.64028L24.5001 24.5002Z" fill="#AAE182"/>
<path d="M24.5001 24.5002L20.7888 -7.615L21.7756 -7.71676L24.5001 24.5002Z" fill="#ABE182"/>
<path d="M24.5001 24.5002L21.5783 -7.69641L22.5669 -7.77396L24.5001 24.5002Z" fill="#ABE182"/>
<path d="M24.5001 24.5002L22.3692 -7.75853L23.3596 -7.81166L24.5001 24.5002Z" fill="#ACE283"/>
<path d="M24.5001 24.5002L23.1616 -7.80095L24.1528 -7.82987L24.5001 24.5002Z" fill="#ACE283"/>
<path d="M24.5001 24.5002L23.9547 -7.82409L24.9466 -7.8288L24.5001 24.5002Z" fill="#ADE283"/>
<path d="M24.5001 24.5002L24.7482 -7.82773L25.7398 -7.80802L24.5001 24.5002Z" fill="#ADE283"/>
<path d="M24.5001 24.5002L25.5415 -7.8121L26.5323 -7.76796L24.5001 24.5002Z" fill="#AEE383"/>
<path d="M24.5001 24.5002L26.3341 -7.77674L27.3236 -7.70819L24.5001 24.5002Z" fill="#AEE383"/>
<path d="M24.5001 24.5002L27.1257 -7.7219L28.1131 -7.62936L24.5001 24.5002Z" fill="#AFE384"/>
<path d="M24.5001 24.5002L27.9155 -7.64778L28.9006 -7.53103L24.5001 24.5002Z" fill="#AFE384"/>
<path d="M24.5001 24.5002L28.7035 -7.55437L29.6853 -7.41341L24.5001 24.5002Z" fill="#B0E384"/>
<path d="M24.5001 24.5002L29.489 -7.44147L30.467 -7.27652L24.5001 24.5002Z" fill="#B0E484"/>
<path d="M24.5001 24.5002L30.2714 -7.30952L31.2451 -7.12035L24.5001 24.5002Z" fill="#B1E484"/>
<path d="M24.5001 24.5002L31.0501 -7.15827L32.0191 -6.94533L24.5001 24.5002Z" fill="#B1E485"/>
<path d="M24.5001 24.5002L31.8252 -6.98796L32.7883 -6.75145L24.5001 24.5002Z" fill="#B2E485"/>
<path d="M24.5001 24.5002L32.5958 -6.7988L33.5529 -6.53851L24.5001 24.5002Z" fill="#B2E585"/>
<path d="M24.5001 24.5002L33.3614 -6.59057L34.3119 -6.30715L24.5001 24.5002Z" fill="#B3E585"/>
<path d="M24.5001 24.5002L34.1217 -6.3637L35.0649 -6.05693L24.5001 24.5002Z" fill="#B3E585"/>
<path d="M24.5001 24.5002L34.8762 -6.11841L35.8117 -5.7885L24.5001 24.5002Z" fill="#B4E586"/>
<path d="M24.5001 24.5002L35.6245 -5.85448L36.5517 -5.50187L24.5001 24.5002Z" fill="#B4E586"/>
<path d="M24.5001 24.5002L36.3662 -5.57234L37.2843 -5.19702L24.5001 24.5002Z" fill="#B5E686"/>
<path d="M24.5001 24.5002L37.1005 -5.272L38.0093 -4.87439L24.5001 24.5002Z" fill="#B5E686"/>
<path d="M24.5001 24.5002L37.8274 -4.95387L38.7261 -4.53399L24.5001 24.5002Z" fill="#B6E686"/>
<path d="M24.5001 24.5002L38.5463 -4.61797L39.4343 -4.17601L24.5001 24.5002Z" fill="#B6E687"/>
<path d="M24.5001 24.5002L39.2567 -4.26449L40.1336 -3.8009L24.5001 24.5002Z" fill="#B7E787"/>
<path d="M24.5001 24.5002L39.9581 -3.89366L40.8234 -3.40887L24.5001 24.5002Z" fill="#B7E787"/>
<path d="M24.5001 24.5002L40.6503 -3.50569L41.5033 -2.99969L24.5001 24.5002Z" fill="#B8E787"/>
<path d="M24.5001 24.5002L41.3328 -3.10102L42.1732 -2.57424L24.5001 24.5002Z" fill="#B8E787"/>
<path d="M24.5001 24.5002L42.005 -2.67963L42.8322 -2.13228L24.5001 24.5002Z" fill="#B9E888"/>
<path d="M24.5001 24.5002L42.6668 -2.24175L43.4802 -1.67448L24.5001 24.5002Z" fill="#B9E888"/>
<path d="M24.5001 24.5002L43.3176 -1.7878L44.1169 -1.20061L24.5001 24.5002Z" fill="#BAE888"/>
<path d="M24.5001 24.5002L43.9571 -1.31822L44.5848 -0.832783L24.5001 24.5002Z" fill="#39AE56"/>
</g>
<path d="M24.5001 10.5256C32.2181 10.5256 38.4746 16.7823 38.4746 24.5002C38.4746 32.2182 32.2181 38.4754 24.5001 38.4754C16.7821 38.4754 10.5254 32.2199 10.5254 24.5009C10.5254 16.7818 16.7821 10.5256 24.5001 10.5256Z" fill="white" fill-opacity="0.43"/>
<path d="M24.5001 18.5377C27.793 18.5377 30.4625 21.2071 30.4625 24.5002C30.4625 27.7934 27.793 30.4633 24.5001 30.4633C21.2072 30.4633 18.5375 27.7938 18.5375 24.5009C18.5375 21.208 21.207 18.5377 24.5001 18.5377Z" fill="white" fill-opacity="0.43"/>
<path d="M22.3373 4.36694C18.5105 5.13318 14.9714 6.94618 12.1138 9.60421C9.25611 12.2622 7.19201 15.661 6.15116 19.4224C5.1103 23.1838 5.1335 27.1602 6.21818 30.9091C7.30286 34.6581 9.40647 38.0326 12.2949 40.6571C9.05495 38.211 6.62509 34.8475 5.32081 31.0031C4.01653 27.1588 3.89806 23.0111 4.98078 19.0985C7.19632 11.0922 14.0775 5.2517 22.3373 4.36694Z" fill="black" fill-opacity="0.6"/>
<path d="M44.6535 22.5368C45.1135 25.04 45.0543 27.6109 44.4796 30.0902C43.9049 32.5696 42.827 34.9044 41.3127 36.9499C39.7984 38.9954 37.88 40.708 35.6765 41.9815C33.473 43.255 31.0313 44.0622 28.5029 44.3531C38.6858 42.301 45.6636 32.8752 44.6535 22.5368Z" fill="white" fill-opacity="0.6"/>
<path d="M33.0553 13.0633C33.1209 13.1125 33.1643 13.1858 33.176 13.267C33.1876 13.3482 33.1665 13.4307 33.1173 13.4963C33.0681 13.562 32.9948 13.6054 32.9136 13.617C32.8324 13.6287 32.7499 13.6076 32.6842 13.5584C30.3244 11.7931 27.4572 10.8379 24.5102 10.8351C21.5632 10.8323 18.6942 11.7821 16.331 13.5429C13.9679 15.3037 12.2371 17.7811 11.3969 20.6058C10.5566 23.4305 10.6519 26.4511 11.6684 29.2173C12.685 31.9834 14.5683 34.3469 17.0377 35.9553C19.5071 37.5637 22.4302 38.3309 25.3712 38.1425C28.3122 37.954 31.1135 36.8201 33.3575 34.9096C35.6014 32.9992 37.1677 30.4147 37.8229 27.5414C37.8318 27.5017 37.8485 27.4642 37.8719 27.431C37.8953 27.3978 37.925 27.3695 37.9594 27.3477C37.9937 27.326 38.0321 27.3112 38.0721 27.3043C38.1122 27.2973 38.1532 27.2983 38.1929 27.3073C38.2325 27.3162 38.2701 27.3328 38.3033 27.3562C38.3365 27.3797 38.3648 27.4094 38.3866 27.4438C38.4083 27.4781 38.4231 27.5164 38.43 27.5565C38.437 27.5965 38.4359 27.6376 38.427 27.6772C37.7426 30.6809 36.1057 33.3828 33.7603 35.3802C31.415 37.3776 28.4868 38.5634 25.4125 38.7607C22.3382 38.9581 19.2825 38.1565 16.701 36.4754C14.1194 34.7943 12.1505 32.3238 11.0876 29.4323C10.0248 26.5409 9.92503 23.3833 10.8032 20.4305C11.6814 17.4777 13.4905 14.8878 15.9608 13.0472C18.431 11.2065 21.4301 10.2135 24.5107 10.2165C27.5913 10.2194 30.5885 11.2179 33.0553 13.0633Z" fill="white"/>
<path d="M27.5203 19.0049C27.5568 19.024 27.5892 19.0502 27.6155 19.082C27.6418 19.1138 27.6614 19.1505 27.6734 19.1899C27.6853 19.2294 27.6892 19.2709 27.6849 19.3119C27.6806 19.3529 27.6682 19.3927 27.6483 19.4288C27.6285 19.465 27.6016 19.4968 27.5693 19.5224C27.537 19.548 27.4999 19.567 27.4602 19.5781C27.4205 19.5892 27.3789 19.5923 27.338 19.5871C27.2971 19.582 27.2576 19.5688 27.2219 19.5482C26.1859 18.9791 24.9976 18.7491 23.8241 18.8905C22.6506 19.0318 21.5509 19.5375 20.6797 20.3362C19.8085 21.135 19.2096 22.1868 18.9672 23.3437C18.7247 24.5005 18.851 25.7042 19.3282 26.7856C19.8054 27.867 20.6096 28.7715 21.6276 29.3722C22.6456 29.9728 23.8263 30.2392 25.0036 30.1339C26.1808 30.0287 27.2955 29.5571 28.1909 28.7855C29.0862 28.0138 29.7172 26.9809 29.995 25.8321C30.0043 25.7923 30.0214 25.7547 30.0452 25.7215C30.0691 25.6884 30.0993 25.6602 30.1341 25.6388C30.1689 25.6174 30.2076 25.603 30.2479 25.5966C30.2883 25.5902 30.3295 25.5918 30.3693 25.6014C30.409 25.611 30.4464 25.6284 30.4794 25.6525C30.5124 25.6767 30.5402 25.7071 30.5614 25.7421C30.5825 25.7771 30.5966 25.8159 30.6026 25.8563C30.6087 25.8967 30.6067 25.9379 30.5968 25.9776C30.2884 27.2524 29.5882 28.3985 28.5947 29.2547C27.6011 30.1109 26.3642 30.6341 25.0578 30.7508C23.7515 30.8676 22.4414 30.5719 21.3118 29.9053C20.1822 29.2388 19.2899 28.235 18.7605 27.035C18.231 25.835 18.091 24.4993 18.3601 23.2156C18.6292 21.9319 19.2939 20.7649 20.2607 19.8786C21.2276 18.9923 22.4479 18.4314 23.75 18.2747C25.0522 18.1179 26.3708 18.3733 27.5203 19.0049Z" fill="white"/>
<path d="M39.0337 15.5839L41.7936 17.8922C41.929 18.0054 42.0408 18.1442 42.1226 18.3006C42.2043 18.4571 42.2545 18.6281 42.2702 18.8039C42.2858 18.9797 42.2667 19.1569 42.2139 19.3253C42.1611 19.4937 42.0757 19.6501 41.9624 19.7855L37.0305 25.683C36.8018 25.9565 36.4738 26.1279 36.1187 26.1596C35.7636 26.1912 35.4104 26.0805 35.1369 25.8518L32.377 23.5437C32.2416 23.4305 32.1298 23.2917 32.0481 23.1353C31.9663 22.9788 31.9162 22.8078 31.9005 22.632C31.8848 22.4562 31.9039 22.279 31.9567 22.1106C32.0095 21.9422 32.095 21.7858 32.2082 21.6504L37.1402 15.7529C37.3688 15.4794 37.6968 15.3079 38.0519 15.2762C38.407 15.2445 38.7602 15.3552 39.0337 15.5839Z" fill="#011D41"/>
<path d="M38.629 15.9479L41.5072 18.3549C41.8114 18.6092 41.8341 19.0833 41.5577 19.4136L36.5928 25.3503C36.3167 25.6806 35.846 25.7423 35.5418 25.4878L32.6637 23.081C32.3595 22.8265 32.3368 22.3526 32.6131 22.0221L37.578 16.0854C37.854 15.7551 38.3253 15.6936 38.629 15.9479Z" fill="white"/>
<path d="M38.4876 16.4986L39.0504 16.9699L39.0136 17.0128C38.9491 17.0904 38.9179 17.1904 38.9268 17.291C38.9358 17.3915 38.9841 17.4844 39.0614 17.5494L39.854 18.2125C39.9316 18.277 40.0317 18.3082 40.1322 18.2992C40.2328 18.2902 40.3257 18.2418 40.3906 18.1645L40.4273 18.1216L40.99 18.5929C41.082 18.6703 41.1396 18.781 41.1503 18.9007C41.161 19.0204 41.1239 19.1395 41.047 19.232L36.3218 24.8818C36.2445 24.9738 36.1339 25.0314 36.0142 25.0421C35.8945 25.0527 35.7754 25.0156 35.683 24.9388L33.1804 22.846C33.0884 22.7686 33.0308 22.6579 33.0201 22.5382C33.0094 22.4185 33.0466 22.2994 33.1234 22.2069L37.8488 16.5556C37.9261 16.4636 38.0368 16.4059 38.1565 16.3953C38.2762 16.3846 38.3953 16.4218 38.4876 16.4986Z" fill="#011D41"/>
<path d="M35.4083 22.7232C35.4921 22.7933 35.5533 22.8867 35.584 22.9916C35.6147 23.0964 35.6136 23.208 35.5809 23.3123C35.5483 23.4165 35.4854 23.5087 35.4003 23.5773C35.3152 23.6458 35.2117 23.6875 35.1028 23.6972C34.994 23.7069 34.8848 23.6842 34.7889 23.6318C34.693 23.5794 34.6148 23.4998 34.5642 23.4029C34.5135 23.3061 34.4928 23.1965 34.5045 23.0878C34.5161 22.9792 34.5598 22.8765 34.6298 22.7926C34.7239 22.6802 34.8587 22.6097 35.0047 22.5967C35.1507 22.5837 35.2959 22.6292 35.4083 22.7232Z" fill="white"/>
</g>
<defs>
<linearGradient id="paint0_linear_1029_31354" x1="36.6205" y1="44.0475" x2="10.4778" y2="2.13128" gradientUnits="userSpaceOnUse">
<stop stop-color="#BBE888"/>
<stop offset="1" stop-color="#38AD55"/>
</linearGradient>
<clipPath id="clip0_1029_31354">
<rect width="49" height="49" fill="white"/>
</clipPath>
</defs>
</svg>
